<svg xmlns="http://www.w3.org/2000/svg" width="93.406" height="144" viewBox="0 0 93.406 144">
  <line x1="32" y1="48" x2="61.406" y2="48" stroke="gray" stroke-width="1" />
  <path d="M55.5 35.5 Q53.156 39.938, 50.375 44.125 Q44.813 51.031, 41.031 52.375 Q36.969 54.5, 33.406 54.5 Q31.531 54.5, 31.25 52 L31.219 51.625 Q30.813 48.094, 35.313 44.625 Q37.469 43.75, 37.969 43.75 L38.219 43.875 Q37.719 45.031, 37.469 47.125 Q37.625 48.531, 39.063 49.25 Q42.219 49.25, 46.5 39.125 L59.219 9.406 Q53.813 9.063, 46.406 8.594 Q44.188 8.594, 42.781 9.406 L42.531 9.406 Q43.969 2.156, 50.781 2.156 L51.031 2.156 L67.688 3.313 Q64.719 12.438, 63.094 16.781 Q62.25 19.031, 55.5 35.5 Z" fill="black" rule="nonzero" />
</svg>
