<svg xmlns="http://www.w3.org/2000/svg" width="113.625" height="144" viewBox="0 0 113.625 144">
  <line x1="32" y1="48" x2="81.625" y2="48" stroke="gray" stroke-width="1" />
  <path d="M57.313 28 Q55.656 30.938, 54.156 34.859 Q52.656 38.781, 49.25 42.359 Q45.844 45.938, 42.453 46.969 Q39.063 48, 35.5 48 Q33.625 48, 33.344 45.5 L33.313 45.125 Q32.906 41.594, 37.406 38.125 Q39.563 37.25, 40.063 37.25 L40.313 37.375 Q39.813 38.531, 39.563 40.625 Q39.719 42.031, 41.156 42.75 Q44.313 42.75, 48.594 32.625 L59.438 9.156 Q54.031 8.813, 46.625 8.344 Q44.406 8.344, 43 9.156 L42.75 9.156 Q44.188 1.906, 51 1.906 L51.25 1.906 L67.906 3.063 Q64.938 12.188, 63.313 16.531 Q62.625 18.375, 60.5 21.781 Q61.063 21.594, 61.719 21.438 Q66.875 19.469, 70.516 15.984 Q74.156 12.5, 76.656 9.375 Q79.156 6.25, 81.5 4.688 Q83.844 3.125, 86.188 3.125 Q88.531 3.125, 89.313 4.25 Q90.094 5.375, 89.813 6.594 Q89.531 7.813, 87.984 8.594 Q86.438 9.375, 85.016 9.375 Q83.594 9.375, 82.438 10.25 Q81.281 11.125, 79.313 13.703 Q77.344 16.281, 75.516 18.234 Q73.688 20.188, 71.094 21.984 Q68.5 23.781, 66.031 24.563 Q65.094 24.875, 64.125 25.219 Q68.469 28.25, 69.5 37.438 Q69.813 38.844, 70.375 40 Q72.156 43.656, 75.813 43.813 Q77.875 43.25, 78 41.969 Q77.781 40.313, 77.406 39.594 L77.594 39.344 Q78 39.063, 78.719 38.75 Q82.156 39.25, 81.844 42.5 L81.813 42.813 Q81.594 45.125, 80.156 46.156 Q77.438 48.094, 74.313 48.5 Q70 48.969, 66.75 46.469 Q63.5 43.969, 63 38.234 Q62.5 32.5, 60.75 30.781 Q59.781 29.813, 57.313 28 Z" fill="black" rule="nonzero" />
</svg>
