<svg xmlns="http://www.w3.org/2000/svg" width="475.712" height="144" viewBox="0 0 475.712 144">
  <line x1="32" y1="48" x2="443.712" y2="48" stroke="gray" stroke-width="1" />
  <path d="M44.992 24.512 L43.008 30.912 L55.616 30.912 L53.632 24.512 Q52.48 20.992, 51.456 17.504 Q50.432 14.016, 49.408 10.368 L49.152 10.368 Q48.192 14.016, 47.168 17.504 Q46.144 20.992, 44.992 24.512 Z M32.192 48 L46.4 6.016 L52.416 6.016 L66.624 48 L60.928 48 L56.96 35.2 L41.664 35.2 L37.632 48 Z M80 48 L66.816 6.016 L72.512 6.016 L78.976 28.672 Q80.064 32.448, 81.024 35.616 Q81.984 38.784, 83.072 42.56 L83.328 42.56 Q84.416 38.784, 85.312 35.616 Q86.208 32.448, 87.36 28.672 L94.336 6.016 L99.776 6.016 L86.208 48 Z M118.336 48 L118.336 6.016 L123.648 6.016 L123.648 23.616 L143.168 23.616 L143.168 6.016 L148.544 6.016 L148.544 48 L143.168 48 L143.168 28.224 L123.648 28.224 L123.648 48 Z M171.328 20.416 Q169.408 20.416, 167.584 21.344 Q165.76 22.272, 164.448 24.32 Q163.136 26.368, 162.688 29.696 L178.88 29.696 Q178.88 25.152, 176.896 22.784 Q174.912 20.416, 171.328 20.416 Z M172.16 48.768 Q168 48.768, 164.576 46.848 Q161.152 44.928, 159.168 41.248 Q157.184 37.568, 157.184 32.448 Q157.184 27.392, 159.2 23.744 Q161.216 20.096, 164.448 18.112 Q167.68 16.128, 171.264 16.128 Q177.28 16.128, 180.448 20.096 Q183.616 24.064, 183.616 30.72 Q183.616 31.552, 183.552 32.32 Q183.488 33.088, 183.36 33.856 L162.56 33.856 Q162.944 39.104, 165.92 41.792 Q168.896 44.48, 172.8 44.48 Q175.04 44.48, 176.992 43.84 Q178.944 43.2, 180.544 42.112 L182.464 45.568 Q180.416 46.976, 177.888 47.872 Q175.36 48.768, 172.16 48.768 Z M196.864 48.576 Q193.92 48.576, 192.608 46.752 Q191.296 44.928, 191.296 41.6 L191.296 2.432 L196.544 2.432 L196.544 41.984 Q196.544 43.2, 196.992 43.712 Q197.44 44.224, 198.08 44.224 Q198.336 44.224, 198.56 44.192 Q198.784 44.16, 199.168 44.096 L199.872 48.064 Q198.72 48.576, 196.864 48.576 Z M213.184 48.576 Q210.24 48.576, 208.928 46.752 Q207.616 44.928, 207.616 41.6 L207.616 2.432 L212.864 2.432 L212.864 41.984 Q212.864 43.2, 213.312 43.712 Q213.76 44.224, 214.4 44.224 Q214.656 44.224, 214.88 44.192 Q215.104 44.16, 215.488 44.096 L216.192 48.064 Q215.04 48.576, 213.184 48.576 Z M236.032 48.768 Q232.256 48.768, 228.96 46.848 Q225.664 44.928, 223.648 41.28 Q221.632 37.632, 221.632 32.512 Q221.632 27.264, 223.648 23.616 Q225.664 19.968, 228.96 18.048 Q232.256 16.128, 236.032 16.128 Q239.872 16.128, 243.136 18.048 Q246.4 19.968, 248.416 23.616 Q250.432 27.264, 250.432 32.512 Q250.432 37.632, 248.416 41.28 Q246.4 44.928, 243.136 46.848 Q239.872 48.768, 236.032 48.768 Z M236.032 44.416 Q240.064 44.416, 242.528 41.12 Q244.992 37.824, 244.992 32.512 Q244.992 27.136, 242.528 23.808 Q240.064 20.48, 236.032 20.48 Q232.064 20.48, 229.568 23.808 Q227.072 27.136, 227.072 32.512 Q227.072 37.824, 229.568 41.12 Q232.064 44.416, 236.032 44.416 Z M276.352 48 L267.648 6.016 L273.344 6.016 L277.632 28.864 Q278.272 32.256, 278.848 35.648 Q279.424 39.04, 279.936 42.624 L280.192 42.624 Q280.896 39.04, 281.6 35.616 Q282.304 32.192, 283.072 28.864 L288.768 6.016 L294.144 6.016 L299.648 28.864 Q300.416 32.192, 301.184 35.616 Q301.952 39.04, 302.656 42.624 L302.912 42.624 Q303.424 39.04, 303.968 35.616 Q304.512 32.192, 305.152 28.864 L309.568 6.016 L315.008 6.016 L306.24 48 L299.392 48 L293.376 22.784 Q292.864 20.352, 292.416 18.016 Q291.968 15.68, 291.456 12.928 L291.2 12.928 Q290.816 15.68, 290.336 18.016 Q289.856 20.352, 289.344 22.784 L283.2 48 Z M333.824 48.768 Q330.048 48.768, 326.752 46.848 Q323.456 44.928, 321.44 41.28 Q319.424 37.632, 319.424 32.512 Q319.424 27.264, 321.44 23.616 Q323.456 19.968, 326.752 18.048 Q330.048 16.128, 333.824 16.128 Q337.664 16.128, 340.928 18.048 Q344.192 19.968, 346.208 23.616 Q348.224 27.264, 348.224 32.512 Q348.224 37.632, 346.208 41.28 Q344.192 44.928, 340.928 46.848 Q337.664 48.768, 333.824 48.768 Z M333.824 44.416 Q337.856 44.416, 340.32 41.12 Q342.784 37.824, 342.784 32.512 Q342.784 27.136, 340.32 23.808 Q337.856 20.48, 333.824 20.48 Q329.856 20.48, 327.36 23.808 Q324.864 27.136, 324.864 32.512 Q324.864 37.824, 327.36 41.12 Q329.856 44.416, 333.824 44.416 Z M356.416 48 L356.416 16.896 L360.768 16.896 L361.216 22.528 L361.408 22.528 Q362.944 19.584, 365.248 17.856 Q367.552 16.128, 370.24 16.128 Q372.096 16.128, 373.568 16.768 L372.416 21.248 Q371.712 21.056, 371.104 20.96 Q370.496 20.864, 369.536 20.864 Q367.552 20.864, 365.408 22.464 Q363.264 24.064, 361.664 28.032 L361.664 48 Z M384.192 48.576 Q381.248 48.576, 379.936 46.752 Q378.624 44.928, 378.624 41.6 L378.624 2.432 L383.872 2.432 L383.872 41.984 Q383.872 43.2, 384.32 43.712 Q384.768 44.224, 385.408 44.224 Q385.664 44.224, 385.888 44.192 Q386.112 44.16, 386.496 44.096 L387.2 48.064 Q386.048 48.576, 384.192 48.576 Z M405.568 48.768 Q399.744 48.768, 396.224 44.512 Q392.704 40.256, 392.704 32.512 Q392.704 27.456, 394.592 23.776 Q396.48 20.096, 399.584 18.112 Q402.688 16.128, 406.208 16.128 Q408.896 16.128, 410.88 17.088 Q412.864 18.048, 414.912 19.712 L414.656 14.4 L414.656 2.432 L419.968 2.432 L419.968 48 L415.616 48 L415.168 44.352 L414.976 44.352 Q413.184 46.144, 410.752 47.456 Q408.32 48.768, 405.568 48.768 Z M406.72 44.352 Q410.816 44.352, 414.656 40.064 L414.656 23.808 Q412.672 22.016, 410.848 21.28 Q409.024 20.544, 407.104 20.544 Q404.608 20.544, 402.592 22.048 Q400.576 23.552, 399.36 26.208 Q398.144 28.864, 398.144 32.448 Q398.144 38.016, 400.384 41.184 Q402.624 44.352, 406.72 44.352 Z M432.64 35.328 L431.936 11.136 L431.808 5.12 L437.12 5.12 L436.992 11.136 L436.288 35.328 Z M434.496 48.768 Q432.896 48.768, 431.776 47.648 Q430.656 46.528, 430.656 44.8 Q430.656 42.944, 431.776 41.824 Q432.896 40.704, 434.496 40.704 Q436.032 40.704, 437.152 41.824 Q438.272 42.944, 438.272 44.8 Q438.272 46.528, 437.152 47.648 Q436.032 48.768, 434.496 48.768 Z" fill="black" rule="nonzero" />
</svg>
