<svg xmlns="http://www.w3.org/2000/svg" width="109.906" height="144" viewBox="0 0 109.906 144">
  <line x1="32" y1="48" x2="77.906" y2="48" stroke="gray" stroke-width="1" />
  <path d="M43.219 41.25 Q68.25 40.781, 75.656 40.938 Q77.875 40.844, 79.25 39.969 L79.5 39.938 Q78.375 47.25, 71.563 47.531 L71.313 47.563 L41.438 46.906 L40.188 46.969 Q37.156 47.094, 31.875 48.438 L31.875 48.344 Q34.031 42.375, 37.531 35.984 Q41.031 29.594, 43.859 23.047 Q46.688 16.5, 49.313 12.219 Q54.594 5.063, 58.313 3.563 Q62.281 1.281, 65.844 1.125 Q67.688 1.031, 68.094 3.531 L68.125 3.906 Q68.688 7.406, 64.344 11.063 Q62.219 12.031, 61.719 12.063 L61.469 11.938 Q61.938 10.781, 62.094 8.656 Q61.875 7.281, 60.406 6.625 Q57.25 6.75, 53.719 17.031 Q53.063 18.875, 43.219 41.25 Z" fill="black" rule="nonzero" />
</svg>
