<svg xmlns="http://www.w3.org/2000/svg" width="123.438" height="144" viewBox="0 0 123.438 144">
  <line x1="32" y1="48" x2="91.438" y2="48" stroke="gray" stroke-width="1" />
  <path d="M72.156 45.688 Q70.531 42, 58.75 19 Q53.406 33.625, 50.625 37.813 Q45.063 44.719, 41.281 46.063 Q37.219 48.188, 33.656 48.188 Q31.781 48.188, 31.5 45.688 L31.469 45.313 Q31.063 41.781, 35.563 38.313 Q37.719 37.438, 38.219 37.438 L38.469 37.563 Q37.969 38.719, 37.719 40.813 Q37.875 42.219, 39.313 42.938 Q42.469 42.938, 46.438 32.813 L56.594 9.469 Q51.188 9.125, 43.781 8.656 Q41.563 8.656, 40.156 9.469 L39.906 9.469 Q41.344 2.219, 48.156 2.219 L48.406 2.219 L63.063 2.594 L75.75 36.813 Q78.875 23, 86.688 3.813 Q89 -0.063, 92.688 0.906 Q96.375 1.875, 88.594 24.031 Q80.813 46.188, 77.297 47.781 Q73.781 49.375, 72.156 45.688 Z" fill="black" rule="nonzero" />
</svg>
