<svg xmlns="http://www.w3.org/2000/svg" width="117.875" height="144" viewBox="0 0 117.875 144">
  <line x1="32" y1="48" x2="85.875" y2="48" stroke="gray" stroke-width="1" />
  <path d="M74.281 22.063 L74.406 22.063 Q79.344 22.156, 83.188 17.281 Q87.031 12.406, 87.156 9.688 L87.125 9.406 Q87.094 9.188, 86.5 8.813 L86.188 8.813 Q82 9.938, 75.094 20.531 Z M65.219 27.188 Q65 27.219, 64.75 27.25 Q63.125 27.625, 61.875 27.625 L61.5 27.625 Q60.844 27.625, 57.969 27.406 Q55.313 31.844, 52.25 36.031 Q46.219 42.938, 42.344 44.281 Q38.125 46.406, 34.563 46.406 Q32.688 46.406, 32.563 43.906 L32.563 43.531 Q32.406 40, 37.156 36.531 Q39.375 35.656, 39.875 35.656 L40.094 35.781 Q39.531 36.938, 39.125 39.031 Q39.188 40.438, 40.563 41.156 Q43.719 41.156, 49.031 31.031 L60.063 9.406 Q54.656 9.063, 47.281 8.594 Q45.063 8.594, 43.625 9.406 L43.375 9.406 Q45.313 2.156, 52.125 2.156 L52.375 2.156 L68.938 3.313 Q65.344 12.438, 63.406 16.781 Q62.406 19.031, 61.344 21.188 L66.594 21.656 L67.594 21.656 Q68 21.656, 68.406 21.625 Q71.313 16.906, 75.156 11.531 Q83.781 1.5, 91.188 1.5 Q94.813 1.969, 95.031 4.094 L95.063 4.219 Q94.875 10.719, 87 19.141 Q79.125 27.563, 72 27.781 Q64.969 41.969, 74.781 41.125 L76.656 41.125 Q80.25 41.125, 87.438 33.188 L87.563 33.188 Q87.688 34.25, 83.438 40.469 Q77.313 47.625, 70.844 47.625 L70 47.625 Q65.438 47.25, 63.109 43.313 Q60.781 39.375, 61.781 34.563 Q63.094 31.156, 65.219 27.188 Z" fill="black" rule="nonzero" />
</svg>
