<svg xmlns="http://www.w3.org/2000/svg" width="128.281" height="144" viewBox="0 0 128.281 144">
  <line x1="32" y1="48" x2="96.281" y2="48" stroke="gray" stroke-width="1" />
  <path d="M82.719 24 Q66.5 46.219, 62.797 47.469 Q59.094 48.719, 57.375 38.406 L56.281 20.969 Q52.281 32.5, 48.266 38.359 Q44.25 44.219, 40.828 46.391 Q37.406 48.563, 31.281 47.688 Q29.406 47.688, 29.125 45.188 L29.094 44.813 Q28.688 41.281, 33.188 37.813 Q35.344 36.938, 35.844 36.938 L36.094 37.063 Q35.594 38.219, 35.344 40.313 Q35.5 41.719, 36.938 42.438 Q40.094 42.438, 45 32.313 L54.219 9.906 Q48.813 9.563, 41.406 9.094 Q39.188 9.094, 37.781 9.906 L37.531 9.906 Q38.969 2.656, 45.781 2.656 L46.031 2.656 L62.063 2.5 L65.063 34.688 Q85.875 7.781, 87.438 5.188 Q90.781 2, 94.469 2.969 Q98.156 3.938, 97.078 6.125 Q96 8.313, 85.594 38 L85.375 38.625 L85.313 38.875 Q84.969 40.813, 88 41.25 L89.625 41.25 Q92.75 41.25, 97.594 37.375 L97.719 37.375 Q97.563 38.313, 95.063 41.625 Q88.281 48, 82.656 48 L81.906 48 Q79 48, 76.688 43.75 Q75.938 40.813, 77.969 36.625 Q80.094 30.906, 82.719 24 Z" fill="black" rule="nonzero" />
</svg>
