<svg xmlns="http://www.w3.org/2000/svg" width="838.313" height="144" viewBox="0 0 838.313 144">
  <line x1="32" y1="48" x2="806.313" y2="48" stroke="gray" stroke-width="1" />
  <path d="M33.625 48 L50.531 1.438 L57.406 1.438 L74.531 48 L68.281 48 L63.625 35 L44.438 35 L39.938 48 Z M46.25 29.813 L61.781 29.813 L58.406 20.375 Q57.563 18.031, 56.5 14.641 Q55.438 11.25, 53.938 6.188 Q52.469 11.344, 51.375 14.781 Q50.281 18.219, 49.531 20.375 Z M90.531 48 L73.406 1.438 L79.656 1.438 L89.5 29.063 Q90.281 31.219, 91.391 34.703 Q92.5 38.188, 93.969 43.188 Q95.438 38.063, 96.547 34.641 Q97.656 31.219, 98.406 29.063 L108 1.438 L114.313 1.438 L97.375 48 Z M119 6.688 L119 1.438 L154.188 1.438 L154.188 6.688 L139.594 6.688 L139.594 48 L133.656 48 L133.656 6.688 Z M171.406 48.75 Q166.656 48.75, 163.078 46.5 Q159.5 44.25, 157.5 40.188 Q155.5 36.125, 155.5 30.75 Q155.5 25.281, 157.5 21.203 Q159.5 17.125, 163.078 14.875 Q166.656 12.625, 171.406 12.625 Q176.188 12.625, 179.781 14.875 Q183.375 17.125, 185.375 21.203 Q187.375 25.281, 187.375 30.75 Q187.375 36.125, 185.375 40.188 Q183.375 44.25, 179.781 46.5 Q176.188 48.75, 171.406 48.75 Z M171.406 43.719 Q174.938 43.719, 177.219 41.906 Q179.5 40.094, 180.594 37.141 Q181.688 34.188, 181.688 30.75 Q181.688 27.281, 180.594 24.297 Q179.5 21.313, 177.219 19.484 Q174.938 17.656, 171.406 17.656 Q167.906 17.656, 165.656 19.484 Q163.406 21.313, 162.313 24.281 Q161.219 27.25, 161.219 30.75 Q161.219 34.188, 162.313 37.141 Q163.406 40.094, 165.656 41.906 Q167.906 43.719, 171.406 43.719 Z M206.125 48 L189 1.438 L195.25 1.438 L205.094 29.063 Q205.875 31.219, 206.984 34.703 Q208.094 38.188, 209.563 43.188 Q211.031 38.063, 212.141 34.641 Q213.25 31.219, 214 29.063 L223.594 1.438 L229.906 1.438 L212.969 48 Z M228.781 48 L245.688 1.438 L252.563 1.438 L269.688 48 L263.438 48 L258.781 35 L239.594 35 L235.094 48 Z M241.406 29.813 L256.938 29.813 L253.563 20.375 Q252.719 18.031, 251.656 14.641 Q250.594 11.25, 249.094 6.188 Q247.625 11.344, 246.531 14.781 Q245.438 18.219, 244.688 20.375 Z M268.938 6.688 L268.938 1.438 L304.125 1.438 L304.125 6.688 L289.531 6.688 L289.531 48 L283.594 48 L283.594 6.688 Z M317.219 48.813 Q313.906 48.813, 311.203 47.563 Q308.5 46.313, 306.906 43.906 Q305.313 41.5, 305.313 38.063 Q305.313 35.063, 306.5 33.188 Q307.688 31.313, 309.672 30.234 Q311.656 29.156, 314.063 28.625 Q316.469 28.094, 318.906 27.781 Q322.031 27.375, 324 27.156 Q325.969 26.938, 326.922 26.406 Q327.875 25.875, 327.875 24.594 L327.875 24.406 Q327.875 21.156, 326.031 19.359 Q324.188 17.563, 320.563 17.563 Q316.781 17.563, 314.656 19.203 Q312.531 20.844, 311.719 22.688 L306.313 20.906 Q307.656 17.719, 309.938 15.922 Q312.219 14.125, 314.969 13.375 Q317.719 12.625, 320.406 12.625 Q322.156 12.625, 324.391 13.047 Q326.625 13.469, 328.703 14.719 Q330.781 15.969, 332.141 18.422 Q333.5 20.875, 333.5 24.969 L333.5 48 L327.969 48 L327.969 43.25 L327.594 43.25 Q327 44.469, 325.688 45.766 Q324.375 47.063, 322.281 47.938 Q320.188 48.813, 317.219 48.813 Z M318.188 43.844 Q321.313 43.844, 323.469 42.625 Q325.625 41.406, 326.75 39.453 Q327.875 37.5, 327.875 35.375 L327.875 30.531 Q327.531 30.938, 326.375 31.266 Q325.219 31.594, 323.734 31.844 Q322.25 32.094, 320.859 32.266 Q319.469 32.438, 318.656 32.531 Q316.625 32.781, 314.859 33.391 Q313.094 34, 312.031 35.172 Q310.969 36.344, 310.969 38.344 Q310.969 41.063, 313.016 42.453 Q315.063 43.844, 318.188 43.844 Z M352.469 48 L352.469 28.938 L335.344 1.438 L342.219 1.438 L351.438 16.469 Q352.625 18.406, 353.594 20.141 Q354.563 21.875, 355.5 24.063 Q356.438 21.813, 357.406 20.063 Q358.375 18.313, 359.5 16.469 L368.688 1.438 L375.531 1.438 L358.406 28.938 L358.406 48 Z M391.406 48.75 Q386.656 48.75, 383.078 46.5 Q379.5 44.25, 377.5 40.188 Q375.5 36.125, 375.5 30.75 Q375.5 25.281, 377.5 21.203 Q379.5 17.125, 383.078 14.875 Q386.656 12.625, 391.406 12.625 Q396.188 12.625, 399.781 14.875 Q403.375 17.125, 405.375 21.203 Q407.375 25.281, 407.375 30.75 Q407.375 36.125, 405.375 40.188 Q403.375 44.25, 399.781 46.5 Q396.188 48.75, 391.406 48.75 Z M391.406 43.719 Q394.938 43.719, 397.219 41.906 Q399.5 40.094, 400.594 37.141 Q401.688 34.188, 401.688 30.75 Q401.688 27.281, 400.594 24.297 Q399.5 21.313, 397.219 19.484 Q394.938 17.656, 391.406 17.656 Q387.906 17.656, 385.656 19.484 Q383.406 21.313, 382.313 24.281 Q381.219 27.25, 381.219 30.75 Q381.219 34.188, 382.313 37.141 Q383.406 40.094, 385.656 41.906 Q387.906 43.719, 391.406 43.719 Z M408.688 6.688 L408.688 1.438 L443.875 1.438 L443.875 6.688 L429.281 6.688 L429.281 48 L423.344 48 L423.344 6.688 Z M461.563 48.75 Q456.5 48.75, 452.828 46.5 Q449.156 44.25, 447.172 40.219 Q445.188 36.188, 445.188 30.813 Q445.188 25.438, 447.125 21.344 Q449.063 17.25, 452.609 14.938 Q456.156 12.625, 460.906 12.625 Q463.688 12.625, 466.391 13.547 Q469.094 14.469, 471.297 16.516 Q473.5 18.563, 474.813 21.906 Q476.125 25.25, 476.125 30.094 L476.125 32.438 L450.875 32.438 Q451.094 37.906, 454.016 40.828 Q456.938 43.75, 461.594 43.75 Q464.688 43.75, 466.922 42.391 Q469.156 41.031, 470.125 38.375 L475.563 39.875 Q474.344 43.844, 470.641 46.297 Q466.938 48.75, 461.563 48.75 Z M450.906 27.688 L470.406 27.688 Q470 23.219, 467.609 20.422 Q465.219 17.625, 460.906 17.625 Q457.906 17.625, 455.734 19.031 Q453.563 20.438, 452.313 22.719 Q451.063 25, 450.906 27.688 Z M490.313 48 L477.625 1.438 L483.688 1.438 L491.063 30 Q491.813 33, 492.5 36.094 Q493.188 39.188, 493.813 42.469 Q494.438 39.188, 495.125 36.094 Q495.813 33, 496.625 30 L504.156 1.438 L510.906 1.438 L518.375 30 Q519.938 35.844, 521.219 42.281 Q521.813 39.063, 522.516 36.016 Q523.219 32.969, 523.969 30 L531.313 1.438 L537.438 1.438 L524.688 48 L517.781 48 L509.781 18.5 Q509.188 16.281, 508.609 13.75 Q508.031 11.219, 507.5 8.156 Q506.969 11, 506.438 13.484 Q505.906 15.969, 505.219 18.5 L497.25 48 Z M550.531 48.813 Q547.219 48.813, 544.516 47.563 Q541.813 46.313, 540.219 43.906 Q538.625 41.5, 538.625 38.063 Q538.625 35.063, 539.813 33.188 Q541 31.313, 542.984 30.234 Q544.969 29.156, 547.375 28.625 Q549.781 28.094, 552.219 27.781 Q555.344 27.375, 557.313 27.156 Q559.281 26.938, 560.234 26.406 Q561.188 25.875, 561.188 24.594 L561.188 24.406 Q561.188 21.156, 559.344 19.359 Q557.5 17.563, 553.875 17.563 Q550.094 17.563, 547.969 19.203 Q545.844 20.844, 545.031 22.688 L539.625 20.906 Q540.969 17.719, 543.25 15.922 Q545.531 14.125, 548.281 13.375 Q551.031 12.625, 553.719 12.625 Q555.469 12.625, 557.703 13.047 Q559.938 13.469, 562.016 14.719 Q564.094 15.969, 565.453 18.422 Q566.813 20.875, 566.813 24.969 L566.813 48 L561.281 48 L561.281 43.25 L560.906 43.25 Q560.313 44.469, 559 45.766 Q557.688 47.063, 555.594 47.938 Q553.5 48.813, 550.531 48.813 Z M551.5 43.844 Q554.625 43.844, 556.781 42.625 Q558.938 41.406, 560.063 39.453 Q561.188 37.5, 561.188 35.375 L561.188 30.531 Q560.844 30.938, 559.688 31.266 Q558.531 31.594, 557.047 31.844 Q555.563 32.094, 554.172 32.266 Q552.781 32.438, 551.969 32.531 Q549.938 32.781, 548.172 33.391 Q546.406 34, 545.344 35.172 Q544.281 36.344, 544.281 38.344 Q544.281 41.063, 546.328 42.453 Q548.375 43.844, 551.5 43.844 Z M577.375 48 L577.375 1.438 L583.313 1.438 L583.313 42.75 L604.875 42.75 L604.875 48 Z M624.531 48 L624.531 28.938 L607.406 1.438 L614.281 1.438 L623.5 16.469 Q624.688 18.406, 625.656 20.141 Q626.625 21.875, 627.563 24.063 Q628.5 21.813, 629.469 20.063 Q630.438 18.313, 631.563 16.469 L640.75 1.438 L647.594 1.438 L630.469 28.938 L630.469 48 Z M654.844 48 L654.844 1.438 L683 1.438 L683 6.688 L660.781 6.688 L660.781 22.625 L680.875 22.625 L680.875 27.875 L660.781 27.875 L660.781 48 Z M682.813 48 L699.719 1.438 L706.594 1.438 L723.719 48 L717.469 48 L712.813 35 L693.625 35 L689.125 48 Z M695.438 29.813 L710.969 29.813 L707.594 20.375 Q706.75 18.031, 705.688 14.641 Q704.625 11.25, 703.125 6.188 Q701.656 11.344, 700.563 14.781 Q699.469 18.219, 698.719 20.375 Z M727.906 48 L744.813 1.438 L751.688 1.438 L768.813 48 L762.563 48 L757.906 35 L738.719 35 L734.219 48 Z M740.531 29.813 L756.063 29.813 L752.688 20.375 Q751.844 18.031, 750.781 14.641 Q749.719 11.25, 748.219 6.188 Q746.75 11.344, 745.656 14.781 Q744.563 18.219, 743.813 20.375 Z M768.063 6.688 L768.063 1.438 L803.25 1.438 L803.25 6.688 L788.656 6.688 L788.656 48 L782.719 48 L782.719 6.688 Z" fill="black" rule="nonzero" />
</svg>
