<svg xmlns="http://www.w3.org/2000/svg" width="904.031" height="144" viewBox="0 0 904.031 144">
  <line x1="32" y1="48" x2="872.031" y2="48" stroke="gray" stroke-width="1" />
  <path d="M33.625 48 L50.531 1.438 L57.406 1.438 L74.531 48 L68.281 48 L63.625 35 L44.438 35 L39.938 48 Z M46.25 29.813 L61.781 29.813 L58.406 20.375 Q57.563 18.031, 56.5 14.641 Q55.438 11.25, 53.938 6.188 Q52.469 11.344, 51.375 14.781 Q50.281 18.219, 49.531 20.375 Z M94.906 48 L77.781 1.438 L84.031 1.438 L93.875 29.063 Q94.656 31.219, 95.766 34.703 Q96.875 38.188, 98.344 43.188 Q99.813 38.063, 100.922 34.641 Q102.031 31.219, 102.781 29.063 L112.375 1.438 L118.688 1.438 L101.75 48 Z M123.375 6.688 L123.375 1.438 L158.563 1.438 L158.563 6.688 L143.969 6.688 L143.969 48 L138.031 48 L138.031 6.688 Z M180.781 48.75 Q176.031 48.75, 172.453 46.5 Q168.875 44.25, 166.875 40.188 Q164.875 36.125, 164.875 30.75 Q164.875 25.281, 166.875 21.203 Q168.875 17.125, 172.453 14.875 Q176.031 12.625, 180.781 12.625 Q185.563 12.625, 189.156 14.875 Q192.75 17.125, 194.75 21.203 Q196.75 25.281, 196.75 30.75 Q196.75 36.125, 194.75 40.188 Q192.75 44.25, 189.156 46.5 Q185.563 48.75, 180.781 48.75 Z M180.781 43.719 Q184.313 43.719, 186.594 41.906 Q188.875 40.094, 189.969 37.141 Q191.063 34.188, 191.063 30.75 Q191.063 27.281, 189.969 24.297 Q188.875 21.313, 186.594 19.484 Q184.313 17.656, 180.781 17.656 Q177.281 17.656, 175.031 19.484 Q172.781 21.313, 171.688 24.281 Q170.594 27.25, 170.594 30.75 Q170.594 34.188, 171.688 37.141 Q172.781 40.094, 175.031 41.906 Q177.281 43.719, 180.781 43.719 Z M218.75 48 L201.625 1.438 L207.875 1.438 L217.719 29.063 Q218.5 31.219, 219.609 34.703 Q220.719 38.188, 222.188 43.188 Q223.656 38.063, 224.766 34.641 Q225.875 31.219, 226.625 29.063 L236.219 1.438 L242.531 1.438 L225.594 48 Z M245.781 48 L262.688 1.438 L269.563 1.438 L286.688 48 L280.438 48 L275.781 35 L256.594 35 L252.094 48 Z M258.406 29.813 L273.938 29.813 L270.563 20.375 Q269.719 18.031, 268.656 14.641 Q267.594 11.25, 266.094 6.188 Q264.625 11.344, 263.531 14.781 Q262.438 18.219, 261.688 20.375 Z M291.375 6.688 L291.375 1.438 L326.563 1.438 L326.563 6.688 L311.969 6.688 L311.969 48 L306.031 48 L306.031 6.688 Z M344.344 48.813 Q341.031 48.813, 338.328 47.563 Q335.625 46.313, 334.031 43.906 Q332.438 41.5, 332.438 38.063 Q332.438 35.063, 333.625 33.188 Q334.813 31.313, 336.797 30.234 Q338.781 29.156, 341.188 28.625 Q343.594 28.094, 346.031 27.781 Q349.156 27.375, 351.125 27.156 Q353.094 26.938, 354.047 26.406 Q355 25.875, 355 24.594 L355 24.406 Q355 21.156, 353.156 19.359 Q351.313 17.563, 347.688 17.563 Q343.906 17.563, 341.781 19.203 Q339.656 20.844, 338.844 22.688 L333.438 20.906 Q334.781 17.719, 337.063 15.922 Q339.344 14.125, 342.094 13.375 Q344.844 12.625, 347.531 12.625 Q349.281 12.625, 351.516 13.047 Q353.75 13.469, 355.828 14.719 Q357.906 15.969, 359.266 18.422 Q360.625 20.875, 360.625 24.969 L360.625 48 L355.094 48 L355.094 43.25 L354.719 43.25 Q354.125 44.469, 352.813 45.766 Q351.5 47.063, 349.406 47.938 Q347.313 48.813, 344.344 48.813 Z M345.313 43.844 Q348.438 43.844, 350.594 42.625 Q352.75 41.406, 353.875 39.453 Q355 37.5, 355 35.375 L355 30.531 Q354.656 30.938, 353.5 31.266 Q352.344 31.594, 350.859 31.844 Q349.375 32.094, 347.984 32.266 Q346.594 32.438, 345.781 32.531 Q343.75 32.781, 341.984 33.391 Q340.219 34, 339.156 35.172 Q338.094 36.344, 338.094 38.344 Q338.094 41.063, 340.141 42.453 Q342.188 43.844, 345.313 43.844 Z M384.313 48 L384.313 28.938 L367.188 1.438 L374.063 1.438 L383.281 16.469 Q384.469 18.406, 385.438 20.141 Q386.406 21.875, 387.344 24.063 Q388.281 21.813, 389.25 20.063 Q390.219 18.313, 391.344 16.469 L400.531 1.438 L407.375 1.438 L390.25 28.938 L390.25 48 Z M428.156 48.75 Q423.406 48.75, 419.828 46.5 Q416.25 44.25, 414.25 40.188 Q412.25 36.125, 412.25 30.75 Q412.25 25.281, 414.25 21.203 Q416.25 17.125, 419.828 14.875 Q423.406 12.625, 428.156 12.625 Q432.938 12.625, 436.531 14.875 Q440.125 17.125, 442.125 21.203 Q444.125 25.281, 444.125 30.75 Q444.125 36.125, 442.125 40.188 Q440.125 44.25, 436.531 46.5 Q432.938 48.75, 428.156 48.75 Z M428.156 43.719 Q431.688 43.719, 433.969 41.906 Q436.25 40.094, 437.344 37.141 Q438.438 34.188, 438.438 30.75 Q438.438 27.281, 437.344 24.297 Q436.25 21.313, 433.969 19.484 Q431.688 17.656, 428.156 17.656 Q424.656 17.656, 422.406 19.484 Q420.156 21.313, 419.063 24.281 Q417.969 27.25, 417.969 30.75 Q417.969 34.188, 419.063 37.141 Q420.156 40.094, 422.406 41.906 Q424.656 43.719, 428.156 43.719 Z M450.438 6.688 L450.438 1.438 L485.625 1.438 L485.625 6.688 L471.031 6.688 L471.031 48 L465.094 48 L465.094 6.688 Z M508.313 48.75 Q503.25 48.75, 499.578 46.5 Q495.906 44.25, 493.922 40.219 Q491.938 36.188, 491.938 30.813 Q491.938 25.438, 493.875 21.344 Q495.813 17.25, 499.359 14.938 Q502.906 12.625, 507.656 12.625 Q510.438 12.625, 513.141 13.547 Q515.844 14.469, 518.047 16.516 Q520.25 18.563, 521.563 21.906 Q522.875 25.25, 522.875 30.094 L522.875 32.438 L497.625 32.438 Q497.844 37.906, 500.766 40.828 Q503.688 43.75, 508.344 43.75 Q511.438 43.75, 513.672 42.391 Q515.906 41.031, 516.875 38.375 L522.313 39.875 Q521.094 43.844, 517.391 46.297 Q513.688 48.75, 508.313 48.75 Z M497.656 27.688 L517.156 27.688 Q516.75 23.219, 514.359 20.422 Q511.969 17.625, 507.656 17.625 Q504.656 17.625, 502.484 19.031 Q500.313 20.438, 499.063 22.719 Q497.813 25, 497.656 27.688 Z M540.313 48 L527.625 1.438 L533.688 1.438 L541.063 30 Q541.813 33, 542.5 36.094 Q543.188 39.188, 543.813 42.469 Q544.438 39.188, 545.125 36.094 Q545.813 33, 546.625 30 L554.156 1.438 L560.906 1.438 L568.375 30 Q569.938 35.844, 571.219 42.281 Q571.813 39.063, 572.516 36.016 Q573.219 32.969, 573.969 30 L581.313 1.438 L587.438 1.438 L574.688 48 L567.781 48 L559.781 18.5 Q559.188 16.281, 558.609 13.75 Q558.031 11.219, 557.5 8.156 Q556.969 11, 556.438 13.484 Q555.906 15.969, 555.219 18.5 L547.25 48 Z M603.781 48.813 Q600.469 48.813, 597.766 47.563 Q595.063 46.313, 593.469 43.906 Q591.875 41.5, 591.875 38.063 Q591.875 35.063, 593.063 33.188 Q594.25 31.313, 596.234 30.234 Q598.219 29.156, 600.625 28.625 Q603.031 28.094, 605.469 27.781 Q608.594 27.375, 610.563 27.156 Q612.531 26.938, 613.484 26.406 Q614.438 25.875, 614.438 24.594 L614.438 24.406 Q614.438 21.156, 612.594 19.359 Q610.75 17.563, 607.125 17.563 Q603.344 17.563, 601.219 19.203 Q599.094 20.844, 598.281 22.688 L592.875 20.906 Q594.219 17.719, 596.5 15.922 Q598.781 14.125, 601.531 13.375 Q604.281 12.625, 606.969 12.625 Q608.719 12.625, 610.953 13.047 Q613.188 13.469, 615.266 14.719 Q617.344 15.969, 618.703 18.422 Q620.063 20.875, 620.063 24.969 L620.063 48 L614.531 48 L614.531 43.25 L614.156 43.25 Q613.563 44.469, 612.25 45.766 Q610.938 47.063, 608.844 47.938 Q606.75 48.813, 603.781 48.813 Z M604.75 43.844 Q607.875 43.844, 610.031 42.625 Q612.188 41.406, 613.313 39.453 Q614.438 37.5, 614.438 35.375 L614.438 30.531 Q614.094 30.938, 612.938 31.266 Q611.781 31.594, 610.297 31.844 Q608.813 32.094, 607.422 32.266 Q606.031 32.438, 605.219 32.531 Q603.188 32.781, 601.422 33.391 Q599.656 34, 598.594 35.172 Q597.531 36.344, 597.531 38.344 Q597.531 41.063, 599.578 42.453 Q601.625 43.844, 604.75 43.844 Z M630.625 48 L630.625 1.438 L636.563 1.438 L636.563 42.75 L658.125 42.75 L658.125 48 Z M679.938 48 L679.938 28.938 L662.813 1.438 L669.688 1.438 L678.906 16.469 Q680.094 18.406, 681.063 20.141 Q682.031 21.875, 682.969 24.063 Q683.906 21.813, 684.875 20.063 Q685.844 18.313, 686.969 16.469 L696.156 1.438 L703 1.438 L685.875 28.938 L685.875 48 Z M710.25 48 L710.25 1.438 L738.406 1.438 L738.406 6.688 L716.188 6.688 L716.188 22.625 L736.281 22.625 L736.281 27.875 L716.188 27.875 L716.188 48 Z M744.031 48 L760.938 1.438 L767.813 1.438 L784.938 48 L778.688 48 L774.031 35 L754.844 35 L750.344 48 Z M756.656 29.813 L772.188 29.813 L768.813 20.375 Q767.969 18.031, 766.906 14.641 Q765.844 11.25, 764.344 6.188 Q762.875 11.344, 761.781 14.781 Q760.688 18.219, 759.938 20.375 Z M788.188 48 L805.094 1.438 L811.969 1.438 L829.094 48 L822.844 48 L818.188 35 L799 35 L794.5 48 Z M800.813 29.813 L816.344 29.813 L812.969 20.375 Q812.125 18.031, 811.063 14.641 Q810 11.25, 808.5 6.188 Q807.031 11.344, 805.938 14.781 Q804.844 18.219, 804.094 20.375 Z M833.781 6.688 L833.781 1.438 L868.969 1.438 L868.969 6.688 L854.375 6.688 L854.375 48 L848.438 48 L848.438 6.688 Z" fill="black" rule="nonzero" />
</svg>
