<svg xmlns="http://www.w3.org/2000/svg" width="409" height="868" viewBox="0 0 409 868">
  <defs>
    <clipPath id="clip0">
      <path d="M 52 8 H 357 A 44 44 0 0 1 401 52 V 816 A 44 44 0 0 1 357 860 H 52 A 44 44 0 0 1 8 816 V 52 A 44 44 0 0 1 52 8 Z " clip-rule="nonzero" />
    </clipPath>
  </defs>
  <g clip-path="url(#clip0)">
    <g transform="translate(8,8)">
      <rect x="0" y="0" width="393" height="852" fill="#FFFFFF" />
      <rect x="200" y="83" width="1" height="735" fill="#E0E0E0" />
      <text x="3" y="86" fill="#000000" text-anchor="start" dominant-baseline="text-before-edge" font-size="15" font-family="Inter" xml:space="preserve">Basic fixed grid</text>
      <text x="3" y="110.15" fill="#000000" text-anchor="start" dominant-baseline="text-before-edge" font-size="15" font-family="Inter" xml:space="preserve">Grid with gaps</text>
      <text x="3" y="134.3" fill="#000000" text-anchor="start" dominant-baseline="text-before-edge" font-size="15" font-family="Inter" xml:space="preserve">Fractional units</text>
      <text x="3" y="158.45" fill="#000000" text-anchor="start" dominant-baseline="text-before-edge" font-size="15" font-family="Inter" xml:space="preserve">Auto tracks</text>
      <text x="3" y="182.6" fill="#000000" text-anchor="start" dominant-baseline="text-before-edge" font-size="15" font-family="Inter" xml:space="preserve">Spanning cells</text>
      <text x="3" y="206.75" fill="#000000" text-anchor="start" dominant-baseline="text-before-edge" font-size="15" font-family="Inter" xml:space="preserve">Named areas</text>
      <text x="3" y="230.9" fill="#000000" text-anchor="start" dominant-baseline="text-before-edge" font-size="15" font-family="Inter" xml:space="preserve">Auto flow</text>
      <text x="3" y="255.05" fill="#000000" text-anchor="start" dominant-baseline="text-before-edge" font-size="15" font-family="Inter" xml:space="preserve">Alignment</text>
      <rect x="3" y="279.2" width="194" height="18.15" fill="#D3D3D3" />
      <text x="3" y="279.2" fill="#000000" text-anchor="start" dominant-baseline="text-before-edge" font-size="15" font-family="Inter" xml:space="preserve">Fixed container</text>
      <text x="3" y="303.34" fill="#000000" text-anchor="start" dominant-baseline="text-before-edge" font-size="15" font-family="Inter" xml:space="preserve">Scrollable grid</text>
      <text x="3" y="327.49" fill="#000000" text-anchor="start" dominant-baseline="text-before-edge" font-size="15" font-family="Inter" xml:space="preserve">Nested grids</text>
      <text x="3" y="351.64" fill="#000000" text-anchor="start" dominant-baseline="text-before-edge" font-size="15" font-family="Inter" xml:space="preserve">MinMax tracks</text>
      <rect x="200" y="83" width="193" height="735" fill="#F0F0F0" />
      <path d="M 144.5 322.5 H 448.5 A 6 6 0 0 1 454.5 328.5 V 572.5 A 6 6 0 0 1 448.5 578.5 H 144.5 A 6 6 0 0 1 138.5 572.5 V 328.5 A 6 6 0 0 1 144.5 322.5 Z " fill="#FFFFFF" fill-rule="nonzero" />
      <path d="M 152.5 332.5 H 215.5 A 4 4 0 0 1 219.5 336.5 V 403.17 A 4 4 0 0 1 215.5 407.17 H 152.5 A 4 4 0 0 1 148.5 403.17 V 336.5 A 4 4 0 0 1 152.5 332.5 Z " fill="#4A90D9" fill-rule="nonzero" />
      <text x="180.21" y="363.18" fill="#000000" text-anchor="start" dominant-baseline="text-before-edge" font-size="11" font-family="Inter" xml:space="preserve">A</text>
      <path d="M 229.5 332.5 H 363.5 A 4 4 0 0 1 367.5 336.5 V 403.17 A 4 4 0 0 1 363.5 407.17 H 229.5 A 4 4 0 0 1 225.5 403.17 V 336.5 A 4 4 0 0 1 229.5 332.5 Z " fill="#52BE80" fill-rule="nonzero" />
      <text x="292.9" y="363.18" fill="#000000" text-anchor="start" dominant-baseline="text-before-edge" font-size="11" font-family="Inter" xml:space="preserve">B</text>
      <path d="M 377.5 332.5 H 440.5 A 4 4 0 0 1 444.5 336.5 V 403.17 A 4 4 0 0 1 440.5 407.17 H 377.5 A 4 4 0 0 1 373.5 403.17 V 336.5 A 4 4 0 0 1 377.5 332.5 Z " fill="#AF7AC5" fill-rule="nonzero" />
      <text x="404.98" y="363.18" fill="#000000" text-anchor="start" dominant-baseline="text-before-edge" font-size="11" font-family="Inter" xml:space="preserve">C</text>
      <path d="M 152.5 413.17 H 215.5 A 4 4 0 0 1 219.5 417.17 V 483.83 A 4 4 0 0 1 215.5 487.83 H 152.5 A 4 4 0 0 1 148.5 483.83 V 417.17 A 4 4 0 0 1 152.5 413.17 Z " fill="#F0B27A" fill-rule="nonzero" />
      <text x="180.03" y="443.85" fill="#000000" text-anchor="start" dominant-baseline="text-before-edge" font-size="11" font-family="Inter" xml:space="preserve">D</text>
      <path d="M 229.5 413.17 H 363.5 A 4 4 0 0 1 367.5 417.17 V 483.83 A 4 4 0 0 1 363.5 487.83 H 229.5 A 4 4 0 0 1 225.5 483.83 V 417.17 A 4 4 0 0 1 229.5 413.17 Z " fill="#85C1E9" fill-rule="nonzero" />
      <text x="266.28" y="443.85" fill="#000000" text-anchor="start" dominant-baseline="text-before-edge" font-size="11" font-family="Inter" xml:space="preserve">E (2fr wide)</text>
      <path d="M 377.5 413.17 H 440.5 A 4 4 0 0 1 444.5 417.17 V 483.83 A 4 4 0 0 1 440.5 487.83 H 377.5 A 4 4 0 0 1 373.5 483.83 V 417.17 A 4 4 0 0 1 377.5 413.17 Z " fill="#82E0AA" fill-rule="nonzero" />
      <text x="405.75" y="443.85" fill="#000000" text-anchor="start" dominant-baseline="text-before-edge" font-size="11" font-family="Inter" xml:space="preserve">F</text>
      <path d="M 152.5 493.83 H 215.5 A 4 4 0 0 1 219.5 497.83 V 564.5 A 4 4 0 0 1 215.5 568.5 H 152.5 A 4 4 0 0 1 148.5 564.5 V 497.83 A 4 4 0 0 1 152.5 493.83 Z " fill="#F1948A" fill-rule="nonzero" />
      <text x="179.9" y="524.51" fill="#000000" text-anchor="start" dominant-baseline="text-before-edge" font-size="11" font-family="Inter" xml:space="preserve">G</text>
      <path d="M 229.5 493.83 H 363.5 A 4 4 0 0 1 367.5 497.83 V 564.5 A 4 4 0 0 1 363.5 568.5 H 229.5 A 4 4 0 0 1 225.5 564.5 V 497.83 A 4 4 0 0 1 229.5 493.83 Z " fill="#FAD7A0" fill-rule="nonzero" />
      <text x="292.41" y="524.51" fill="#000000" text-anchor="start" dominant-baseline="text-before-edge" font-size="11" font-family="Inter" xml:space="preserve">H</text>
      <path d="M 377.5 493.83 H 440.5 A 4 4 0 0 1 444.5 497.83 V 564.5 A 4 4 0 0 1 440.5 568.5 H 377.5 A 4 4 0 0 1 373.5 564.5 V 497.83 A 4 4 0 0 1 377.5 493.83 Z " fill="#A9CCE3" fill-rule="nonzero" />
      <text x="407.52" y="524.51" fill="#000000" text-anchor="start" dominant-baseline="text-before-edge" font-size="11" font-family="Inter" xml:space="preserve">I</text>
      <path d="M 144.5 321.5 H 448.5 A 7 7 0 0 1 455.5 328.5 V 572.5 A 7 7 0 0 1 448.5 579.5 H 144.5 A 7 7 0 0 1 137.5 572.5 V 328.5 A 7 7 0 0 1 144.5 321.5 Z " fill="none" stroke="#CCCCCC" stroke-width="2" />
      <rect x="0" y="59" width="393" height="24" fill="#FFFFFF" />
      <text x="0" y="59" fill="#000000" text-anchor="start" dominant-baseline="text-before-edge" font-size="15" font-family="Inter" xml:space="preserve">&lt; Back</text>
      <text x="73.18" y="59" fill="#000000" text-anchor="start" dominant-baseline="text-before-edge" font-size="15" font-family="Inter" xml:space="preserve">Grid Layout</text>
    </g>
  </g>
  <path d="M 52 4 H 357 A 48 48 0 0 1 405 52 V 816 A 48 48 0 0 1 357 864 H 52 A 48 48 0 0 1 4 816 V 52 A 48 48 0 0 1 52 4 Z " fill="none" stroke="#111111" stroke-width="8" />
  <path d="M 49.88 1.25 H 359.13 A 48.63 48.63 0 0 1 407.75 49.88 V 818.13 A 48.63 48.63 0 0 1 359.13 866.75 H 49.88 A 48.63 48.63 0 0 1 1.25 818.13 V 49.88 A 48.63 48.63 0 0 1 49.88 1.25 Z " fill="none" stroke="#444444" stroke-width="2.5" />
  <path d="M 159.5 19 H 249.5 A 18 18 0 0 1 267.5 37 V 37 A 18 18 0 0 1 249.5 55 H 159.5 A 18 18 0 0 1 141.5 37 V 37 A 18 18 0 0 1 159.5 19 Z " fill="#111111" fill-rule="nonzero" />
  <g transform="translate(91.25,26)">
    <text x="0" y="0" fill="#000000" text-anchor="middle" dominant-baseline="text-before-edge" font-size="12" font-family="Verdana" font-weight="600" xml:space="preserve">9:41</text>
  </g>
  <g transform="translate(298.25,39.5)">
    <path d="M 1.77 -1.77 A 2.5 2.5 0 0 0 -1.77 -1.77 " fill="none" stroke="#000000" stroke-width="4" />
    <path d="M 5.3 -5.3 A 7.5 7.5 0 0 0 -5.3 -5.3 " fill="none" stroke="#000000" stroke-width="2" />
    <path d="M 8.13 -8.13 A 11.5 11.5 0 0 0 -8.13 -8.13 " fill="none" stroke="#000000" stroke-width="2" />
    <path d="M 10.96 -10.96 A 15.5 15.5 0 0 0 -10.96 -10.96 " fill="none" stroke="#000000" stroke-width="2" />
  </g>
  <g transform="translate(310.25,28.5)">
    <path d="M 3 0 H 17 A 3 3 0 0 1 20 3 V 7 A 3 3 0 0 1 17 10 H 3 A 3 3 0 0 1 0 7 V 3 A 3 3 0 0 1 3 0 Z " fill="none" stroke="#000000" />
    <path d="M 3.5 1.5 H 8.5 A 2 2 0 0 1 10.5 3.5 V 6.5 A 2 2 0 0 1 8.5 8.5 H 3.5 A 2 2 0 0 1 1.5 6.5 V 3.5 A 2 2 0 0 1 3.5 1.5 Z " fill="#000000" fill-rule="nonzero" />
  </g>
  <g transform="translate(346.25,26)">
    <text x="0" y="0" fill="#000000" text-anchor="middle" dominant-baseline="text-before-edge" font-size="12" font-family="Verdana" font-weight="600" xml:space="preserve">5G</text>
  </g>
  <path d="M 151 853 H 258 A 1.5 1.5 0 0 1 259.5 854.5 V 855.5 A 1.5 1.5 0 0 1 258 857 H 151 A 1.5 1.5 0 0 1 149.5 855.5 V 854.5 A 1.5 1.5 0 0 1 151 853 Z " fill="#111111" fill-rule="nonzero" />
</svg>
