<svg xmlns="http://www.w3.org/2000/svg" width="409" height="868" viewBox="0 0 409 868">
  <defs>
    <clipPath id="clip0">
      <path d="M 52 8 H 357 A 44 44 0 0 1 401 52 V 816 A 44 44 0 0 1 357 860 H 52 A 44 44 0 0 1 8 816 V 52 A 44 44 0 0 1 52 8 Z " clip-rule="nonzero" />
    </clipPath>
  </defs>
  <g clip-path="url(#clip0)">
    <g transform="translate(8,8)">
      <rect x="0" y="0" width="393" height="852" fill="#FFFFFF" />
      <rect x="200" y="83" width="1" height="735" fill="#E0E0E0" />
      <text x="3" y="86" fill="#000000" text-anchor="start" dominant-baseline="text-before-edge" font-size="15" font-family="Inter" xml:space="preserve">Basic fixed grid</text>
      <text x="3" y="110.15" fill="#000000" text-anchor="start" dominant-baseline="text-before-edge" font-size="15" font-family="Inter" xml:space="preserve">Grid with gaps</text>
      <text x="3" y="134.3" fill="#000000" text-anchor="start" dominant-baseline="text-before-edge" font-size="15" font-family="Inter" xml:space="preserve">Fractional units</text>
      <text x="3" y="158.45" fill="#000000" text-anchor="start" dominant-baseline="text-before-edge" font-size="15" font-family="Inter" xml:space="preserve">Auto tracks</text>
      <text x="3" y="182.6" fill="#000000" text-anchor="start" dominant-baseline="text-before-edge" font-size="15" font-family="Inter" xml:space="preserve">Spanning cells</text>
      <text x="3" y="206.75" fill="#000000" text-anchor="start" dominant-baseline="text-before-edge" font-size="15" font-family="Inter" xml:space="preserve">Named areas</text>
      <text x="3" y="230.9" fill="#000000" text-anchor="start" dominant-baseline="text-before-edge" font-size="15" font-family="Inter" xml:space="preserve">Auto flow</text>
      <text x="3" y="255.05" fill="#000000" text-anchor="start" dominant-baseline="text-before-edge" font-size="15" font-family="Inter" xml:space="preserve">Alignment</text>
      <text x="3" y="279.2" fill="#000000" text-anchor="start" dominant-baseline="text-before-edge" font-size="15" font-family="Inter" xml:space="preserve">Fixed container</text>
      <text x="3" y="303.34" fill="#000000" text-anchor="start" dominant-baseline="text-before-edge" font-size="15" font-family="Inter" xml:space="preserve">Scrollable grid</text>
      <text x="3" y="327.49" fill="#000000" text-anchor="start" dominant-baseline="text-before-edge" font-size="15" font-family="Inter" xml:space="preserve">Nested grids</text>
      <rect x="3" y="351.64" width="194" height="18.15" fill="#D3D3D3" />
      <text x="3" y="351.64" fill="#000000" text-anchor="start" dominant-baseline="text-before-edge" font-size="15" font-family="Inter" xml:space="preserve">MinMax tracks</text>
      <rect x="200" y="83" width="193" height="735" fill="#F5F5F5" />
      <path d="M 228 108 H 340.92 A 3 3 0 0 1 343.92 111 V 163 A 3 3 0 0 1 340.92 166 H 228 A 3 3 0 0 1 225 163 V 111 A 3 3 0 0 1 228 108 Z " fill="#4A90D9" fill-rule="nonzero" />
      <text x="231" y="130.95" fill="#000000" text-anchor="start" dominant-baseline="text-before-edge" font-size="10" font-family="Inter" xml:space="preserve">minmax
(60,200)
→ fills</text>
      <path d="M 228 107.5 H 340.92 A 3.5 3.5 0 0 1 344.42 111 V 163 A 3.5 3.5 0 0 1 340.92 166.5 H 228 A 3.5 3.5 0 0 1 224.5 163 V 111 A 3.5 3.5 0 0 1 228 107.5 Z " fill="none" stroke="#000000" stroke-opacity="0.15" />
      <path d="M 358.92 108 H 441.1 A 3 3 0 0 1 444.1 111 V 163 A 3 3 0 0 1 441.1 166 H 358.92 A 3 3 0 0 1 355.92 163 V 111 A 3 3 0 0 1 358.92 108 Z " fill="#52BE80" fill-rule="nonzero" />
      <text x="361.92" y="130.95" fill="#000000" text-anchor="start" dominant-baseline="text-before-edge" font-size="10" font-family="Inter" xml:space="preserve">minmax
(80,160)</text>
      <path d="M 358.92 107.5 H 441.1 A 3.5 3.5 0 0 1 444.6 111 V 163 A 3.5 3.5 0 0 1 441.1 166.5 H 358.92 A 3.5 3.5 0 0 1 355.42 163 V 111 A 3.5 3.5 0 0 1 358.92 107.5 Z " fill="none" stroke="#000000" stroke-opacity="0.15" />
      <path d="M 459.1 108 H 538.46 A 3 3 0 0 1 541.46 111 V 163 A 3 3 0 0 1 538.46 166 H 459.1 A 3 3 0 0 1 456.1 163 V 111 A 3 3 0 0 1 459.1 108 Z " fill="#AF7AC5" fill-rule="nonzero" />
      <text x="462.1" y="130.95" fill="#000000" text-anchor="start" dominant-baseline="text-before-edge" font-size="10" font-family="Inter" xml:space="preserve">fit-content
(120)</text>
      <path d="M 459.1 107.5 H 538.46 A 3.5 3.5 0 0 1 541.96 111 V 163 A 3.5 3.5 0 0 1 538.46 166.5 H 459.1 A 3.5 3.5 0 0 1 455.6 163 V 111 A 3.5 3.5 0 0 1 459.1 107.5 Z " fill="none" stroke="#000000" stroke-opacity="0.15" />
      <path d="M 228 178 H 340.92 A 3 3 0 0 1 343.92 181 V 233 A 3 3 0 0 1 340.92 236 H 228 A 3 3 0 0 1 225 233 V 181 A 3 3 0 0 1 228 178 Z " fill="#85C1E9" fill-rule="nonzero" />
      <text x="255.71" y="200.95" fill="#000000" text-anchor="start" dominant-baseline="text-before-edge" font-size="10" font-family="Inter" xml:space="preserve">Row 2, Col 1</text>
      <path d="M 228 177.5 H 340.92 A 3.5 3.5 0 0 1 344.42 181 V 233 A 3.5 3.5 0 0 1 340.92 236.5 H 228 A 3.5 3.5 0 0 1 224.5 233 V 181 A 3.5 3.5 0 0 1 228 177.5 Z " fill="none" stroke="#000000" stroke-opacity="0.15" />
      <path d="M 358.92 178 H 441.1 A 3 3 0 0 1 444.1 181 V 233 A 3 3 0 0 1 441.1 236 H 358.92 A 3 3 0 0 1 355.92 233 V 181 A 3 3 0 0 1 358.92 178 Z " fill="#82E0AA" fill-rule="nonzero" />
      <text x="370.25" y="200.95" fill="#000000" text-anchor="start" dominant-baseline="text-before-edge" font-size="10" font-family="Inter" xml:space="preserve">Row 2, Col 2</text>
      <path d="M 358.92 177.5 H 441.1 A 3.5 3.5 0 0 1 444.6 181 V 233 A 3.5 3.5 0 0 1 441.1 236.5 H 358.92 A 3.5 3.5 0 0 1 355.42 233 V 181 A 3.5 3.5 0 0 1 358.92 177.5 Z " fill="none" stroke="#000000" stroke-opacity="0.15" />
      <path d="M 459.1 178 H 538.46 A 3 3 0 0 1 541.46 181 V 233 A 3 3 0 0 1 538.46 236 H 459.1 A 3 3 0 0 1 456.1 233 V 181 A 3 3 0 0 1 459.1 178 Z " fill="#F1948A" fill-rule="nonzero" />
      <text x="468.98" y="200.95" fill="#000000" text-anchor="start" dominant-baseline="text-before-edge" font-size="10" font-family="Inter" xml:space="preserve">Row 2, Col 3</text>
      <path d="M 459.1 177.5 H 538.46 A 3.5 3.5 0 0 1 541.96 181 V 233 A 3.5 3.5 0 0 1 538.46 236.5 H 459.1 A 3.5 3.5 0 0 1 455.6 233 V 181 A 3.5 3.5 0 0 1 459.1 177.5 Z " fill="none" stroke="#000000" stroke-opacity="0.15" />
      <path d="M 228 248 H 340.92 A 3 3 0 0 1 343.92 251 V 303 A 3 3 0 0 1 340.92 306 H 228 A 3 3 0 0 1 225 303 V 251 A 3 3 0 0 1 228 248 Z " fill="#F0B27A" fill-rule="nonzero" />
      <text x="255.68" y="270.95" fill="#000000" text-anchor="start" dominant-baseline="text-before-edge" font-size="10" font-family="Inter" xml:space="preserve">Row 3, Col 1</text>
      <path d="M 228 247.5 H 340.92 A 3.5 3.5 0 0 1 344.42 251 V 303 A 3.5 3.5 0 0 1 340.92 306.5 H 228 A 3.5 3.5 0 0 1 224.5 303 V 251 A 3.5 3.5 0 0 1 228 247.5 Z " fill="none" stroke="#000000" stroke-opacity="0.15" />
      <path d="M 358.92 248 H 441.1 A 3 3 0 0 1 444.1 251 V 303 A 3 3 0 0 1 441.1 306 H 358.92 A 3 3 0 0 1 355.92 303 V 251 A 3 3 0 0 1 358.92 248 Z " fill="#FAD7A0" fill-rule="nonzero" />
      <text x="370.21" y="270.95" fill="#000000" text-anchor="start" dominant-baseline="text-before-edge" font-size="10" font-family="Inter" xml:space="preserve">Row 3, Col 2</text>
      <path d="M 358.92 247.5 H 441.1 A 3.5 3.5 0 0 1 444.6 251 V 303 A 3.5 3.5 0 0 1 441.1 306.5 H 358.92 A 3.5 3.5 0 0 1 355.42 303 V 251 A 3.5 3.5 0 0 1 358.92 247.5 Z " fill="none" stroke="#000000" stroke-opacity="0.15" />
      <path d="M 459.1 248 H 538.46 A 3 3 0 0 1 541.46 251 V 303 A 3 3 0 0 1 538.46 306 H 459.1 A 3 3 0 0 1 456.1 303 V 251 A 3 3 0 0 1 459.1 248 Z " fill="#A9CCE3" fill-rule="nonzero" />
      <text x="468.94" y="270.95" fill="#000000" text-anchor="start" dominant-baseline="text-before-edge" font-size="10" font-family="Inter" xml:space="preserve">Row 3, Col 3</text>
      <path d="M 459.1 247.5 H 538.46 A 3.5 3.5 0 0 1 541.96 251 V 303 A 3.5 3.5 0 0 1 538.46 306.5 H 459.1 A 3.5 3.5 0 0 1 455.6 303 V 251 A 3.5 3.5 0 0 1 459.1 247.5 Z " fill="none" stroke="#000000" stroke-opacity="0.15" />
      <rect x="0" y="59" width="393" height="24" fill="#FFFFFF" />
      <text x="0" y="59" fill="#000000" text-anchor="start" dominant-baseline="text-before-edge" font-size="15" font-family="Inter" xml:space="preserve">&lt; Back</text>
      <text x="73.18" y="59" fill="#000000" text-anchor="start" dominant-baseline="text-before-edge" font-size="15" font-family="Inter" xml:space="preserve">Grid Layout</text>
    </g>
  </g>
  <path d="M 52 4 H 357 A 48 48 0 0 1 405 52 V 816 A 48 48 0 0 1 357 864 H 52 A 48 48 0 0 1 4 816 V 52 A 48 48 0 0 1 52 4 Z " fill="none" stroke="#111111" stroke-width="8" />
  <path d="M 49.88 1.25 H 359.13 A 48.63 48.63 0 0 1 407.75 49.88 V 818.13 A 48.63 48.63 0 0 1 359.13 866.75 H 49.88 A 48.63 48.63 0 0 1 1.25 818.13 V 49.88 A 48.63 48.63 0 0 1 49.88 1.25 Z " fill="none" stroke="#444444" stroke-width="2.5" />
  <path d="M 159.5 19 H 249.5 A 18 18 0 0 1 267.5 37 V 37 A 18 18 0 0 1 249.5 55 H 159.5 A 18 18 0 0 1 141.5 37 V 37 A 18 18 0 0 1 159.5 19 Z " fill="#111111" fill-rule="nonzero" />
  <g transform="translate(91.25,26)">
    <text x="0" y="0" fill="#000000" text-anchor="middle" dominant-baseline="text-before-edge" font-size="12" font-family="Verdana" font-weight="Xui.Core.Canvas.FontWeight" xml:space="preserve">9:41</text>
  </g>
  <g transform="translate(298.25,39.5)">
    <path d="M 1.77 -1.77 A 2.5 2.5 0 0 0 -1.77 -1.77 " fill="none" stroke="#000000" stroke-width="4" />
    <path d="M 5.3 -5.3 A 7.5 7.5 0 0 0 -5.3 -5.3 " fill="none" stroke="#000000" stroke-width="2" />
    <path d="M 8.13 -8.13 A 11.5 11.5 0 0 0 -8.13 -8.13 " fill="none" stroke="#000000" stroke-width="2" />
    <path d="M 10.96 -10.96 A 15.5 15.5 0 0 0 -10.96 -10.96 " fill="none" stroke="#000000" stroke-width="2" />
  </g>
  <g transform="translate(310.25,28.5)">
    <path d="M 3 0 H 17 A 3 3 0 0 1 20 3 V 7 A 3 3 0 0 1 17 10 H 3 A 3 3 0 0 1 0 7 V 3 A 3 3 0 0 1 3 0 Z " fill="none" stroke="#000000" />
    <path d="M 3.5 1.5 H 8.5 A 2 2 0 0 1 10.5 3.5 V 6.5 A 2 2 0 0 1 8.5 8.5 H 3.5 A 2 2 0 0 1 1.5 6.5 V 3.5 A 2 2 0 0 1 3.5 1.5 Z " fill="#000000" fill-rule="nonzero" />
  </g>
  <g transform="translate(346.25,26)">
    <text x="0" y="0" fill="#000000" text-anchor="middle" dominant-baseline="text-before-edge" font-size="12" font-family="Verdana" font-weight="Xui.Core.Canvas.FontWeight" xml:space="preserve">5G</text>
  </g>
  <path d="M 151 853 H 258 A 1.5 1.5 0 0 1 259.5 854.5 V 855.5 A 1.5 1.5 0 0 1 258 857 H 151 A 1.5 1.5 0 0 1 149.5 855.5 V 854.5 A 1.5 1.5 0 0 1 151 853 Z " fill="#111111" fill-rule="nonzero" />
</svg>
