<svg xmlns="http://www.w3.org/2000/svg" width="464" height="1024" viewBox="0 0 464 1024">
  <defs>
    <clipPath id="clip0">
      <path d="M 36 8 H 428 A 28 28 0 0 1 456 36 V 988 A 28 28 0 0 1 428 1016 H 36 A 28 28 0 0 1 8 988 V 36 A 28 28 0 0 1 36 8 Z " clip-rule="nonzero" />
    </clipPath>
  </defs>
  <g clip-path="url(#clip0)">
    <g transform="translate(8,8)">
      <rect x="0" y="0" width="448" height="1008" fill="#FFFFFF" />
      <text x="0" y="40" fill="#000000" text-anchor="start" dominant-baseline="text-before-edge" font-size="24" font-family="Inter" font-weight="Xui.Core.Canvas.FontWeight" xml:space="preserve">Xui SDK Examples </text>
      <text x="3" y="72.04" fill="#000000" text-anchor="start" dominant-baseline="text-before-edge" font-size="15" font-family="Inter" xml:space="preserve">TextMetrics</text>
      <text x="3" y="96.19" fill="#000000" text-anchor="start" dominant-baseline="text-before-edge" font-size="15" font-family="Inter" xml:space="preserve">Text Layout</text>
      <text x="3" y="120.34" fill="#000000" text-anchor="start" dominant-baseline="text-before-edge" font-size="15" font-family="Inter" xml:space="preserve">Nested Stacks</text>
      <text x="3" y="144.49" fill="#000000" text-anchor="start" dominant-baseline="text-before-edge" font-size="15" font-family="Inter" xml:space="preserve">Grid Layout</text>
      <text x="3" y="168.64" fill="#000000" text-anchor="start" dominant-baseline="text-before-edge" font-size="15" font-family="Inter" xml:space="preserve">ViewCollection Alignment</text>
      <text x="3" y="192.79" fill="#000000" text-anchor="start" dominant-baseline="text-before-edge" font-size="15" font-family="Inter" xml:space="preserve">Animated Heart</text>
      <text x="3" y="216.94" fill="#000000" text-anchor="start" dominant-baseline="text-before-edge" font-size="15" font-family="Inter" xml:space="preserve">TextBox MVP</text>
      <text x="3" y="241.08" fill="#000000" text-anchor="start" dominant-baseline="text-before-edge" font-size="15" font-family="Inter" xml:space="preserve">Canvas Tests</text>
      <text x="3" y="265.23" fill="#000000" text-anchor="start" dominant-baseline="text-before-edge" font-size="15" font-family="Inter" xml:space="preserve">Layers</text>
      <text x="3" y="289.38" fill="#000000" text-anchor="start" dominant-baseline="text-before-edge" font-size="15" font-family="Inter" xml:space="preserve">3D GPU Rendering</text>
      <text x="3" y="313.53" fill="#000000" text-anchor="start" dominant-baseline="text-before-edge" font-size="15" font-family="Inter" xml:space="preserve">Design System</text>
    </g>
  </g>
  <path d="M 36 4 H 428 A 32 32 0 0 1 460 36 V 988 A 32 32 0 0 1 428 1020 H 36 A 32 32 0 0 1 4 988 V 36 A 32 32 0 0 1 36 4 Z " fill="none" stroke="#111111" stroke-width="8" />
  <path d="M 33.88 1.25 H 430.13 A 32.63 32.63 0 0 1 462.75 33.88 V 990.13 A 32.63 32.63 0 0 1 430.13 1022.75 H 33.88 A 32.63 32.63 0 0 1 1.25 990.13 V 33.88 A 32.63 32.63 0 0 1 33.88 1.25 Z " fill="none" stroke="#444444" stroke-width="2.5" />
  <path d="M 248 38 A 16 16 0 0 1 216 38 A 16 16 0 0 1 248 38 " fill="#111111" fill-rule="nonzero" />
  <g transform="translate(105,26)">
    <text x="0" y="0" fill="#000000" text-anchor="middle" dominant-baseline="text-before-edge" font-size="12" font-family="Verdana" font-weight="Xui.Core.Canvas.FontWeight" xml:space="preserve">9:41</text>
  </g>
  <g transform="translate(339.5,39.5)">
    <path d="M 1.77 -1.77 A 2.5 2.5 0 0 0 -1.77 -1.77 " fill="none" stroke="#000000" stroke-width="4" />
    <path d="M 5.3 -5.3 A 7.5 7.5 0 0 0 -5.3 -5.3 " fill="none" stroke="#000000" stroke-width="2" />
    <path d="M 8.13 -8.13 A 11.5 11.5 0 0 0 -8.13 -8.13 " fill="none" stroke="#000000" stroke-width="2" />
    <path d="M 10.96 -10.96 A 15.5 15.5 0 0 0 -10.96 -10.96 " fill="none" stroke="#000000" stroke-width="2" />
  </g>
  <g transform="translate(351.5,28.5)">
    <path d="M 3 0 H 17 A 3 3 0 0 1 20 3 V 7 A 3 3 0 0 1 17 10 H 3 A 3 3 0 0 1 0 7 V 3 A 3 3 0 0 1 3 0 Z " fill="none" stroke="#000000" />
    <path d="M 3.5 1.5 H 8.5 A 2 2 0 0 1 10.5 3.5 V 6.5 A 2 2 0 0 1 8.5 8.5 H 3.5 A 2 2 0 0 1 1.5 6.5 V 3.5 A 2 2 0 0 1 3.5 1.5 Z " fill="#000000" fill-rule="nonzero" />
  </g>
  <g transform="translate(387.5,26)">
    <text x="0" y="0" fill="#000000" text-anchor="middle" dominant-baseline="text-before-edge" font-size="12" font-family="Verdana" font-weight="Xui.Core.Canvas.FontWeight" xml:space="preserve">5G</text>
  </g>
  <path d="M 178.5 1009 H 285.5 A 1.5 1.5 0 0 1 287 1010.5 V 1011.5 A 1.5 1.5 0 0 1 285.5 1013 H 178.5 A 1.5 1.5 0 0 1 177 1011.5 V 1010.5 A 1.5 1.5 0 0 1 178.5 1009 Z " fill="#111111" fill-rule="nonzero" />
</svg>
