<svg xmlns="http://www.w3.org/2000/svg" width="409" height="868" viewBox="0 0 409 868">
  <defs>
    <clipPath id="clip0">
      <path d="M 52 8 H 357 A 44 44 0 0 1 401 52 V 816 A 44 44 0 0 1 357 860 H 52 A 44 44 0 0 1 8 816 V 52 A 44 44 0 0 1 52 8 Z " clip-rule="nonzero" />
    </clipPath>
  </defs>
  <g clip-path="url(#clip0)">
    <g transform="translate(8,8)">
      <rect x="0" y="0" width="393" height="852" fill="#FFFFFF" />
      <rect x="200" y="83" width="1" height="735" fill="#E0E0E0" />
      <text x="3" y="86" fill="#000000" text-anchor="start" dominant-baseline="text-before-edge" font-size="15" font-family="Inter" xml:space="preserve">BorderLayer</text>
      <text x="3" y="110.15" fill="#000000" text-anchor="start" dominant-baseline="text-before-edge" font-size="15" font-family="Inter" xml:space="preserve">TextBox (layered)</text>
      <text x="3" y="134.3" fill="#000000" text-anchor="start" dominant-baseline="text-before-edge" font-size="15" font-family="Inter" xml:space="preserve">DockLayer widgets</text>
      <text x="3" y="158.45" fill="#000000" text-anchor="start" dominant-baseline="text-before-edge" font-size="15" font-family="Inter" xml:space="preserve">Overlay (IOverlay)</text>
      <rect x="200" y="83" width="193" height="735" fill="#F5F5F5" />
      <path d="M 222.5 402.5 H 370.5 A 6 6 0 0 1 376.5 408.5 V 432.5 A 6 6 0 0 1 370.5 438.5 H 222.5 A 6 6 0 0 1 216.5 432.5 V 408.5 A 6 6 0 0 1 222.5 402.5 Z " fill="#0078D4" fill-rule="nonzero" />
      <text x="296.5" y="420.5" fill="#FFFFFF" text-anchor="middle" dominant-baseline="central" font-size="14" font-family="Segoe UI" xml:space="preserve">Open Overlay</text>
      <text x="296.5" y="454.5" fill="#808080" text-anchor="middle" dominant-baseline="text-before-edge" font-size="12" font-family="Segoe UI" xml:space="preserve">IOverlay — cross-platform in-window overlay, auto-dismiss on outside click</text>
      <rect x="0" y="59" width="393" height="24" fill="#FFFFFF" />
      <text x="0" y="59" fill="#000000" text-anchor="start" dominant-baseline="text-before-edge" font-size="15" font-family="Inter" xml:space="preserve">&lt; Back</text>
      <text x="73.18" y="59" fill="#000000" text-anchor="start" dominant-baseline="text-before-edge" font-size="15" font-family="Inter" xml:space="preserve">Layers</text>
    </g>
  </g>
  <path d="M 52 4 H 357 A 48 48 0 0 1 405 52 V 816 A 48 48 0 0 1 357 864 H 52 A 48 48 0 0 1 4 816 V 52 A 48 48 0 0 1 52 4 Z " fill="none" stroke="#111111" stroke-width="8" />
  <path d="M 49.88 1.25 H 359.13 A 48.63 48.63 0 0 1 407.75 49.88 V 818.13 A 48.63 48.63 0 0 1 359.13 866.75 H 49.88 A 48.63 48.63 0 0 1 1.25 818.13 V 49.88 A 48.63 48.63 0 0 1 49.88 1.25 Z " fill="none" stroke="#444444" stroke-width="2.5" />
  <path d="M 159.5 19 H 249.5 A 18 18 0 0 1 267.5 37 V 37 A 18 18 0 0 1 249.5 55 H 159.5 A 18 18 0 0 1 141.5 37 V 37 A 18 18 0 0 1 159.5 19 Z " fill="#111111" fill-rule="nonzero" />
  <g transform="translate(91.25,26)">
    <text x="0" y="0" fill="#000000" text-anchor="middle" dominant-baseline="text-before-edge" font-size="12" font-family="Verdana" font-weight="600" xml:space="preserve">9:41</text>
  </g>
  <g transform="translate(298.25,39.5)">
    <path d="M 1.77 -1.77 A 2.5 2.5 0 0 0 -1.77 -1.77 " fill="none" stroke="#000000" stroke-width="4" />
    <path d="M 5.3 -5.3 A 7.5 7.5 0 0 0 -5.3 -5.3 " fill="none" stroke="#000000" stroke-width="2" />
    <path d="M 8.13 -8.13 A 11.5 11.5 0 0 0 -8.13 -8.13 " fill="none" stroke="#000000" stroke-width="2" />
    <path d="M 10.96 -10.96 A 15.5 15.5 0 0 0 -10.96 -10.96 " fill="none" stroke="#000000" stroke-width="2" />
  </g>
  <g transform="translate(310.25,28.5)">
    <path d="M 3 0 H 17 A 3 3 0 0 1 20 3 V 7 A 3 3 0 0 1 17 10 H 3 A 3 3 0 0 1 0 7 V 3 A 3 3 0 0 1 3 0 Z " fill="none" stroke="#000000" />
    <path d="M 3.5 1.5 H 8.5 A 2 2 0 0 1 10.5 3.5 V 6.5 A 2 2 0 0 1 8.5 8.5 H 3.5 A 2 2 0 0 1 1.5 6.5 V 3.5 A 2 2 0 0 1 3.5 1.5 Z " fill="#000000" fill-rule="nonzero" />
  </g>
  <g transform="translate(346.25,26)">
    <text x="0" y="0" fill="#000000" text-anchor="middle" dominant-baseline="text-before-edge" font-size="12" font-family="Verdana" font-weight="600" xml:space="preserve">5G</text>
  </g>
  <path d="M 151 853 H 258 A 1.5 1.5 0 0 1 259.5 854.5 V 855.5 A 1.5 1.5 0 0 1 258 857 H 151 A 1.5 1.5 0 0 1 149.5 855.5 V 854.5 A 1.5 1.5 0 0 1 151 853 Z " fill="#111111" fill-rule="nonzero" />
</svg>
