<svg xmlns="http://www.w3.org/2000/svg" width="800" height="980" viewBox="0 0 800 980">
  <defs>
    <clipPath id="clip0">
      <path d="M 247.5 60 H 552.5 A 44 44 0 0 1 596.5 104 V 868 A 44 44 0 0 1 552.5 912 H 247.5 A 44 44 0 0 1 203.5 868 V 104 A 44 44 0 0 1 247.5 60 Z " clip-rule="nonzero" />
    </clipPath>
  </defs>
  <g clip-path="url(#clip0)">
    <g transform="translate(203.5,60)">
      <rect x="0" y="0" width="393" height="852" fill="#FFFFFF" />
      <rect x="234" y="24" width="1" height="828" fill="#E0E0E0" />
      <rect x="37" y="27" width="194" height="18.15" fill="#D3D3D3" />
      <text x="37" y="27" fill="#000000" text-anchor="start" dominant-baseline="text-before-edge" font-size="15" font-family="Inter" xml:space="preserve">BorderLayer</text>
      <text x="37" y="51.15" fill="#000000" text-anchor="start" dominant-baseline="text-before-edge" font-size="15" font-family="Inter" xml:space="preserve">TextBox (layered)</text>
      <text x="37" y="75.3" fill="#000000" text-anchor="start" dominant-baseline="text-before-edge" font-size="15" font-family="Inter" xml:space="preserve">DockLayer widgets</text>
      <text x="37" y="99.45" fill="#000000" text-anchor="start" dominant-baseline="text-before-edge" font-size="15" font-family="Inter" xml:space="preserve">Overlay (IOverlay)</text>
      <rect x="234" y="24" width="100" height="828" fill="#F8F9FA" />
      <rect x="254" y="44" width="120" height="80" fill="#4285F4" />
      <rect x="395" y="45" width="118" height="78" fill="none" stroke="#000000" stroke-width="2" />
      <path d="M 546 47 H 642 A 9 9 0 0 1 651 56 V 112 A 9 9 0 0 1 642 121 H 546 A 9 9 0 0 1 537 112 V 56 A 9 9 0 0 1 546 47 Z " fill="#34A853" fill-rule="nonzero" />
      <path d="M 546 45.5 H 642 A 10.5 10.5 0 0 1 652.5 56 V 112 A 10.5 10.5 0 0 1 642 122.5 H 546 A 10.5 10.5 0 0 1 535.5 112 V 56 A 10.5 10.5 0 0 1 546 45.5 Z " fill="none" stroke="#0F9D58" stroke-width="3" />
      <path d="M 714 44 H 754 A 40 40 0 0 1 794 84 V 84 A 40 40 0 0 1 754 124 H 714 A 40 40 0 0 1 674 84 V 84 A 40 40 0 0 1 714 44 Z " fill="#FFAA00" fill-rule="nonzero" />
      <path d="M 822 48 H 926 A 4 4 0 0 1 930 52 V 116 A 4 4 0 0 1 926 120 H 822 A 4 4 0 0 1 818 116 V 52 A 4 4 0 0 1 822 48 Z " fill="#EA4335" fill-rule="nonzero" />
      <path d="M 822 46 H 926 A 6 6 0 0 1 932 52 V 116 A 6 6 0 0 1 926 122 H 822 A 6 6 0 0 1 816 116 V 52 A 6 6 0 0 1 822 46 Z " fill="none" stroke="#C5221F" stroke-width="4" />
      <rect x="34" y="0" width="300" height="24" fill="#FFFFFF" />
      <text x="34" y="0" fill="#000000" text-anchor="start" dominant-baseline="text-before-edge" font-size="15" font-family="Inter" xml:space="preserve">&lt; Back</text>
      <text x="107.18" y="0" fill="#000000" text-anchor="start" dominant-baseline="text-before-edge" font-size="15" font-family="Inter" xml:space="preserve">Layers</text>
    </g>
  </g>
  <path d="M 247.5 56 H 552.5 A 48 48 0 0 1 600.5 104 V 868 A 48 48 0 0 1 552.5 916 H 247.5 A 48 48 0 0 1 199.5 868 V 104 A 48 48 0 0 1 247.5 56 Z " fill="none" stroke="#111111" stroke-width="8" />
  <path d="M 245.38 53.25 H 554.63 A 48.63 48.63 0 0 1 603.25 101.88 V 870.13 A 48.63 48.63 0 0 1 554.63 918.75 H 245.38 A 48.63 48.63 0 0 1 196.75 870.13 V 101.88 A 48.63 48.63 0 0 1 245.38 53.25 Z " fill="none" stroke="#444444" stroke-width="2.5" />
  <path d="M 368 72 H 432 A 13 13 0 0 1 445 85 V 85 A 13 13 0 0 1 432 98 H 368 A 13 13 0 0 1 355 85 V 85 A 13 13 0 0 1 368 72 Z " fill="#111111" fill-rule="nonzero" />
  <g transform="translate(64,78)">
    <text x="0" y="0" fill="#000000" text-anchor="middle" dominant-baseline="text-before-edge" font-size="12" font-family="Verdana" font-weight="Xui.Core.Canvas.FontWeight" xml:space="preserve">15:06</text>
  </g>
  <g transform="translate(700,91.5)">
    <path d="M 1.77 -1.77 A 2.5 2.5 0 0 0 -1.77 -1.77 " fill="none" stroke="#000000" stroke-width="4" />
    <path d="M 5.3 -5.3 A 7.5 7.5 0 0 0 -5.3 -5.3 " fill="none" stroke="#000000" stroke-width="2" />
    <path d="M 8.13 -8.13 A 11.5 11.5 0 0 0 -8.13 -8.13 " fill="none" stroke="#000000" stroke-width="2" stroke-opacity="0.33" />
  </g>
  <g transform="translate(712,80.5)">
    <path d="M 3 0 H 17 A 3 3 0 0 1 20 3 V 7 A 3 3 0 0 1 17 10 H 3 A 3 3 0 0 1 0 7 V 3 A 3 3 0 0 1 3 0 Z " fill="none" stroke="#000000" />
    <path d="M 3.5 1.5 H 11.5 A 2 2 0 0 1 13.5 3.5 V 6.5 A 2 2 0 0 1 11.5 8.5 H 3.5 A 2 2 0 0 1 1.5 6.5 V 3.5 A 2 2 0 0 1 3.5 1.5 Z " fill="#000000" fill-rule="nonzero" />
  </g>
  <g transform="translate(748,78)">
    <text x="0" y="0" fill="#000000" text-anchor="middle" dominant-baseline="text-before-edge" font-size="12" font-family="Verdana" font-weight="Xui.Core.Canvas.FontWeight" xml:space="preserve">5G</text>
  </g>
  <path d="M 346.5 905 H 453.5 A 1.5 1.5 0 0 1 455 906.5 V 907.5 A 1.5 1.5 0 0 1 453.5 909 H 346.5 A 1.5 1.5 0 0 1 345 907.5 V 906.5 A 1.5 1.5 0 0 1 346.5 905 Z " fill="#111111" fill-rule="nonzero" />
  <path d="M 10 0 H 790 A 10 10 0 0 1 800 10 V 42 A 10 10 0 0 1 790 52 H 10 A 10 10 0 0 1 0 42 V 10 A 10 10 0 0 1 10 0 Z " fill="#333333" fill-rule="nonzero" />
  <g transform="translate(423.5 100)" opacity="0.9">
    <polygon points="0,0 0,12 3,9 5,12 7,11 5,8 9,8" fill="white" stroke="black" stroke-width="0.7"/>
  </g>
</svg>
