<svg xmlns="http://www.w3.org/2000/svg" width="800" height="560" viewBox="0 0 800 560">
  <text x="3" y="27" fill="#000000" text-anchor="start" dominant-baseline="text-before-edge" font-size="15" font-family="Inter" xml:space="preserve">Basic row</text>
  <text x="3" y="51.15" fill="#000000" text-anchor="start" dominant-baseline="text-before-edge" font-size="15" font-family="Inter" xml:space="preserve">Basic column</text>
  <text x="3" y="75.3" fill="#000000" text-anchor="start" dominant-baseline="text-before-edge" font-size="15" font-family="Inter" xml:space="preserve">Grow &amp; shrink</text>
  <text x="3" y="99.45" fill="#000000" text-anchor="start" dominant-baseline="text-before-edge" font-size="15" font-family="Inter" xml:space="preserve">Wrapping</text>
  <text x="3" y="123.6" fill="#000000" text-anchor="start" dominant-baseline="text-before-edge" font-size="15" font-family="Inter" xml:space="preserve">Justify content</text>
  <text x="3" y="147.75" fill="#000000" text-anchor="start" dominant-baseline="text-before-edge" font-size="15" font-family="Inter" xml:space="preserve">Align items</text>
  <text x="3" y="171.9" fill="#000000" text-anchor="start" dominant-baseline="text-before-edge" font-size="15" font-family="Inter" xml:space="preserve">Align content</text>
  <text x="3" y="196.05" fill="#000000" text-anchor="start" dominant-baseline="text-before-edge" font-size="15" font-family="Inter" xml:space="preserve">Gaps</text>
  <text x="3" y="220.2" fill="#000000" text-anchor="start" dominant-baseline="text-before-edge" font-size="15" font-family="Inter" xml:space="preserve">Reverse direction</text>
  <rect x="3" y="244.34" width="194" height="18.15" fill="#D3D3D3" />
  <text x="3" y="244.34" fill="#000000" text-anchor="start" dominant-baseline="text-before-edge" font-size="15" font-family="Inter" xml:space="preserve">Nested flex</text>
  <text x="3" y="268.49" fill="#000000" text-anchor="start" dominant-baseline="text-before-edge" font-size="15" font-family="Inter" xml:space="preserve">Responsive layout</text>
  <text x="3" y="292.64" fill="#000000" text-anchor="start" dominant-baseline="text-before-edge" font-size="15" font-family="Inter" xml:space="preserve">Mixed sizing</text>
  <rect x="200" y="24" width="600" height="536" fill="#F5F5F5" />
  <rect x="201" y="25" width="37.88" height="38" fill="#4A90D9" />
  <text x="205.67" y="36.74" fill="#000000" text-anchor="start" dominant-baseline="text-before-edge" font-size="12" font-family="Inter" xml:space="preserve">Logo</text>
  <rect x="200.5" y="24.5" width="38.88" height="39" fill="none" stroke="#000000" stroke-opacity="0.25" />
  <rect x="240.88" y="30" width="21.13" height="28" fill="#E85D5D" />
  <text x="234.64" y="36.74" fill="#000000" text-anchor="start" dominant-baseline="text-before-edge" font-size="12" font-family="Inter" xml:space="preserve">Home</text>
  <rect x="240.38" y="29.5" width="22.13" height="29" fill="none" stroke="#000000" stroke-opacity="0.25" />
  <rect x="264.01" y="30" width="21.13" height="28" fill="#F5A623" />
  <text x="257.65" y="36.74" fill="#000000" text-anchor="start" dominant-baseline="text-before-edge" font-size="12" font-family="Inter" xml:space="preserve">About</text>
  <rect x="263.51" y="29.5" width="22.13" height="29" fill="none" stroke="#000000" stroke-opacity="0.25" />
  <rect x="287.14" y="30" width="21.13" height="28" fill="#9B59B6" />
  <text x="275.42" y="36.74" fill="#000000" text-anchor="start" dominant-baseline="text-before-edge" font-size="12" font-family="Inter" xml:space="preserve">Contact</text>
  <rect x="286.64" y="29.5" width="22.13" height="29" fill="none" stroke="#000000" stroke-opacity="0.25" />
  <rect x="310.27" y="25" width="27.91" height="38" fill="#5CC85A" />
  <text x="310.83" y="36.74" fill="#000000" text-anchor="start" dominant-baseline="text-before-edge" font-size="12" font-family="Inter" xml:space="preserve">User</text>
  <rect x="309.77" y="24.5" width="28.91" height="39" fill="none" stroke="#000000" stroke-opacity="0.25" />
  <rect x="201" y="65" width="43.5" height="28" fill="#F39C12" />
  <text x="211.88" y="71.74" fill="#000000" text-anchor="start" dominant-baseline="text-before-edge" font-size="12" font-family="Inter" xml:space="preserve">Left</text>
  <rect x="200.5" y="64.5" width="44.5" height="29" fill="none" stroke="#000000" stroke-opacity="0.25" />
  <rect x="201" y="95" width="43.5" height="33" fill="#F39C12" />
  <text x="206.27" y="104.24" fill="#000000" text-anchor="start" dominant-baseline="text-before-edge" font-size="12" font-family="Inter" xml:space="preserve">Item 1</text>
  <rect x="200.5" y="94.5" width="44.5" height="34" fill="none" stroke="#000000" stroke-opacity="0.25" />
  <rect x="201" y="130" width="43.5" height="33" fill="#F39C12" />
  <text x="205.05" y="139.24" fill="#000000" text-anchor="start" dominant-baseline="text-before-edge" font-size="12" font-family="Inter" xml:space="preserve">Item 2</text>
  <rect x="200.5" y="129.5" width="44.5" height="34" fill="none" stroke="#000000" stroke-opacity="0.25" />
  <rect x="201" y="165" width="43.5" height="33" fill="#F39C12" />
  <text x="205" y="174.24" fill="#000000" text-anchor="start" dominant-baseline="text-before-edge" font-size="12" font-family="Inter" xml:space="preserve">Item 3</text>
  <rect x="200.5" y="164.5" width="44.5" height="34" fill="none" stroke="#000000" stroke-opacity="0.25" />
  <rect x="246.5" y="65" width="46.17" height="28" fill="#1ABC9C" />
  <text x="250.5" y="71.74" fill="#000000" text-anchor="start" dominant-baseline="text-before-edge" font-size="12" font-family="Inter" xml:space="preserve">Center</text>
  <rect x="246" y="64.5" width="47.17" height="29" fill="none" stroke="#000000" stroke-opacity="0.25" />
  <rect x="246.5" y="95" width="46.17" height="33" fill="#1ABC9C" />
  <text x="253.1" y="104.24" fill="#000000" text-anchor="start" dominant-baseline="text-before-edge" font-size="12" font-family="Inter" xml:space="preserve">Item 1</text>
  <rect x="246" y="94.5" width="47.17" height="34" fill="none" stroke="#000000" stroke-opacity="0.25" />
  <rect x="246.5" y="130" width="46.17" height="33" fill="#1ABC9C" />
  <text x="251.88" y="139.24" fill="#000000" text-anchor="start" dominant-baseline="text-before-edge" font-size="12" font-family="Inter" xml:space="preserve">Item 2</text>
  <rect x="246" y="129.5" width="47.17" height="34" fill="none" stroke="#000000" stroke-opacity="0.25" />
  <rect x="246.5" y="165" width="46.17" height="33" fill="#1ABC9C" />
  <text x="251.84" y="174.24" fill="#000000" text-anchor="start" dominant-baseline="text-before-edge" font-size="12" font-family="Inter" xml:space="preserve">Item 3</text>
  <rect x="246" y="164.5" width="47.17" height="34" fill="none" stroke="#000000" stroke-opacity="0.25" />
  <rect x="294.68" y="65" width="43.5" height="28" fill="#E74C3C" />
  <text x="301.92" y="71.74" fill="#000000" text-anchor="start" dominant-baseline="text-before-edge" font-size="12" font-family="Inter" xml:space="preserve">Right</text>
  <rect x="294.18" y="64.5" width="44.5" height="29" fill="none" stroke="#000000" stroke-opacity="0.25" />
  <rect x="294.68" y="95" width="43.5" height="33" fill="#E74C3C" />
  <text x="299.94" y="104.24" fill="#000000" text-anchor="start" dominant-baseline="text-before-edge" font-size="12" font-family="Inter" xml:space="preserve">Item 1</text>
  <rect x="294.18" y="94.5" width="44.5" height="34" fill="none" stroke="#000000" stroke-opacity="0.25" />
  <rect x="294.68" y="130" width="43.5" height="33" fill="#E74C3C" />
  <text x="298.72" y="139.24" fill="#000000" text-anchor="start" dominant-baseline="text-before-edge" font-size="12" font-family="Inter" xml:space="preserve">Item 2</text>
  <rect x="294.18" y="129.5" width="44.5" height="34" fill="none" stroke="#000000" stroke-opacity="0.25" />
  <rect x="294.68" y="165" width="43.5" height="33" fill="#E74C3C" />
  <text x="298.68" y="174.24" fill="#000000" text-anchor="start" dominant-baseline="text-before-edge" font-size="12" font-family="Inter" xml:space="preserve">Item 3</text>
  <rect x="294.18" y="164.5" width="44.5" height="34" fill="none" stroke="#000000" stroke-opacity="0.25" />
  <rect x="201" y="511" width="137.18" height="48" fill="#4A90D9" />
  <text x="236.52" y="527.74" fill="#000000" text-anchor="start" dominant-baseline="text-before-edge" font-size="12" font-family="Inter" xml:space="preserve">Footer Area</text>
  <rect x="200.5" y="510.5" width="138.18" height="49" fill="none" stroke="#000000" stroke-opacity="0.25" />
  <rect x="0" y="0" width="800" height="24" fill="#FFFFFF" />
  <text x="0" y="0" fill="#000000" text-anchor="start" dominant-baseline="text-before-edge" font-size="15" font-family="Inter" xml:space="preserve">&lt; Back</text>
  <text x="73.18" y="0" fill="#000000" text-anchor="start" dominant-baseline="text-before-edge" font-size="15" font-family="Inter" xml:space="preserve">FlexBox Layout</text>
  <g transform="translate(100 253.41943359375)" opacity="0.9">
    <polygon points="0,0 0,12 3,9 5,12 7,11 5,8 9,8" fill="white" stroke="black" stroke-width="0.7"/>
  </g>
</svg>
