<svg xmlns="http://www.w3.org/2000/svg" width="800" height="560" viewBox="0 0 800 560">
  <text x="3" y="27" fill="#000000" text-anchor="start" dominant-baseline="text-before-edge" font-size="15" font-family="Inter" xml:space="preserve">Basic row</text>
  <text x="3" y="51.15" fill="#000000" text-anchor="start" dominant-baseline="text-before-edge" font-size="15" font-family="Inter" xml:space="preserve">Basic column</text>
  <text x="3" y="75.3" fill="#000000" text-anchor="start" dominant-baseline="text-before-edge" font-size="15" font-family="Inter" xml:space="preserve">Grow &amp; shrink</text>
  <text x="3" y="99.45" fill="#000000" text-anchor="start" dominant-baseline="text-before-edge" font-size="15" font-family="Inter" xml:space="preserve">Wrapping</text>
  <text x="3" y="123.6" fill="#000000" text-anchor="start" dominant-baseline="text-before-edge" font-size="15" font-family="Inter" xml:space="preserve">Justify content</text>
  <text x="3" y="147.75" fill="#000000" text-anchor="start" dominant-baseline="text-before-edge" font-size="15" font-family="Inter" xml:space="preserve">Align items</text>
  <text x="3" y="171.9" fill="#000000" text-anchor="start" dominant-baseline="text-before-edge" font-size="15" font-family="Inter" xml:space="preserve">Align content</text>
  <text x="3" y="196.05" fill="#000000" text-anchor="start" dominant-baseline="text-before-edge" font-size="15" font-family="Inter" xml:space="preserve">Gaps</text>
  <text x="3" y="220.2" fill="#000000" text-anchor="start" dominant-baseline="text-before-edge" font-size="15" font-family="Inter" xml:space="preserve">Reverse direction</text>
  <text x="3" y="244.34" fill="#000000" text-anchor="start" dominant-baseline="text-before-edge" font-size="15" font-family="Inter" xml:space="preserve">Nested flex</text>
  <rect x="3" y="268.49" width="194" height="18.15" fill="#D3D3D3" />
  <text x="3" y="268.49" fill="#000000" text-anchor="start" dominant-baseline="text-before-edge" font-size="15" font-family="Inter" xml:space="preserve">Responsive layout</text>
  <text x="3" y="292.64" fill="#000000" text-anchor="start" dominant-baseline="text-before-edge" font-size="15" font-family="Inter" xml:space="preserve">Mixed sizing</text>
  <rect x="200" y="24" width="600" height="536" fill="#F5F5F5" />
  <rect x="201" y="25" width="98" height="48" fill="#4A90D9" />
  <text x="235.73" y="41.74" fill="#000000" text-anchor="start" dominant-baseline="text-before-edge" font-size="12" font-family="Inter" xml:space="preserve">Logo</text>
  <rect x="200.5" y="24.5" width="99" height="49" fill="none" stroke="#000000" stroke-opacity="0.25" />
  <rect x="696" y="32.5" width="88" height="33" fill="#5CC85A" />
  <text x="709.05" y="41.74" fill="#000000" text-anchor="start" dominant-baseline="text-before-edge" font-size="12" font-family="Inter" xml:space="preserve">Dashboard</text>
  <rect x="695.5" y="32" width="89" height="34" fill="none" stroke="#000000" stroke-opacity="0.25" />
  <rect x="786" y="32.5" width="83" height="33" fill="#E85D5D" />
  <text x="802.19" y="41.74" fill="#000000" text-anchor="start" dominant-baseline="text-before-edge" font-size="12" font-family="Inter" xml:space="preserve">Products</text>
  <rect x="785.5" y="32" width="84" height="34" fill="none" stroke="#000000" stroke-opacity="0.25" />
  <rect x="871" y="32.5" width="83" height="33" fill="#F5A623" />
  <text x="886.49" y="41.74" fill="#000000" text-anchor="start" dominant-baseline="text-before-edge" font-size="12" font-family="Inter" xml:space="preserve">Analytics</text>
  <rect x="870.5" y="32" width="84" height="34" fill="none" stroke="#000000" stroke-opacity="0.25" />
  <rect x="956" y="32.5" width="78" height="33" fill="#9B59B6" />
  <text x="971.88" y="41.74" fill="#000000" text-anchor="start" dominant-baseline="text-before-edge" font-size="12" font-family="Inter" xml:space="preserve">Settings</text>
  <rect x="955.5" y="32" width="79" height="34" fill="none" stroke="#000000" stroke-opacity="0.25" />
  <rect x="1431" y="25" width="48" height="48" fill="#1ABC9C" />
  <text x="1441.61" y="41.74" fill="#000000" text-anchor="start" dominant-baseline="text-before-edge" font-size="12" font-family="Inter" xml:space="preserve">User</text>
  <rect x="1430.5" y="24.5" width="49" height="49" fill="none" stroke="#000000" stroke-opacity="0.25" />
  <rect x="201" y="85" width="198" height="38" fill="#E74C3C" />
  <text x="283.51" y="96.74" fill="#000000" text-anchor="start" dominant-baseline="text-before-edge" font-size="12" font-family="Inter" xml:space="preserve">Item 1</text>
  <rect x="200.5" y="84.5" width="199" height="39" fill="none" stroke="#000000" stroke-opacity="0.25" />
  <rect x="201" y="125" width="198" height="38" fill="#3498DB" />
  <text x="282.3" y="136.74" fill="#000000" text-anchor="start" dominant-baseline="text-before-edge" font-size="12" font-family="Inter" xml:space="preserve">Item 2</text>
  <rect x="200.5" y="124.5" width="199" height="39" fill="none" stroke="#000000" stroke-opacity="0.25" />
  <rect x="201" y="165" width="198" height="38" fill="#E74C3C" />
  <text x="282.25" y="176.74" fill="#000000" text-anchor="start" dominant-baseline="text-before-edge" font-size="12" font-family="Inter" xml:space="preserve">Item 3</text>
  <rect x="200.5" y="164.5" width="199" height="39" fill="none" stroke="#000000" stroke-opacity="0.25" />
  <rect x="201" y="205" width="198" height="38" fill="#3498DB" />
  <text x="282.08" y="216.74" fill="#000000" text-anchor="start" dominant-baseline="text-before-edge" font-size="12" font-family="Inter" xml:space="preserve">Item 4</text>
  <rect x="200.5" y="204.5" width="199" height="39" fill="none" stroke="#000000" stroke-opacity="0.25" />
  <rect x="201" y="245" width="198" height="38" fill="#E74C3C" />
  <text x="282.4" y="256.74" fill="#000000" text-anchor="start" dominant-baseline="text-before-edge" font-size="12" font-family="Inter" xml:space="preserve">Item 5</text>
  <rect x="200.5" y="244.5" width="199" height="39" fill="none" stroke="#000000" stroke-opacity="0.25" />
  <rect x="401" y="85" width="178" height="118" fill="#4A90D9" />
  <text x="472.29" y="136.74" fill="#000000" text-anchor="start" dominant-baseline="text-before-edge" font-size="12" font-family="Inter" xml:space="preserve">Card 1</text>
  <rect x="400.5" y="84.5" width="179" height="119" fill="none" stroke="#000000" stroke-opacity="0.25" />
  <rect x="581" y="85" width="178" height="118" fill="#5CC85A" />
  <text x="651.07" y="136.74" fill="#000000" text-anchor="start" dominant-baseline="text-before-edge" font-size="12" font-family="Inter" xml:space="preserve">Card 2</text>
  <rect x="580.5" y="84.5" width="179" height="119" fill="none" stroke="#000000" stroke-opacity="0.25" />
  <rect x="761" y="85" width="178" height="118" fill="#E85D5D" />
  <text x="831.02" y="136.74" fill="#000000" text-anchor="start" dominant-baseline="text-before-edge" font-size="12" font-family="Inter" xml:space="preserve">Card 3</text>
  <rect x="760.5" y="84.5" width="179" height="119" fill="none" stroke="#000000" stroke-opacity="0.25" />
  <rect x="941" y="85" width="178" height="118" fill="#F5A623" />
  <text x="1010.85" y="136.74" fill="#000000" text-anchor="start" dominant-baseline="text-before-edge" font-size="12" font-family="Inter" xml:space="preserve">Card 4</text>
  <rect x="940.5" y="84.5" width="179" height="119" fill="none" stroke="#000000" stroke-opacity="0.25" />
  <rect x="1121" y="85" width="178" height="118" fill="#9B59B6" />
  <text x="1191.17" y="136.74" fill="#000000" text-anchor="start" dominant-baseline="text-before-edge" font-size="12" font-family="Inter" xml:space="preserve">Card 5</text>
  <rect x="1120.5" y="84.5" width="179" height="119" fill="none" stroke="#000000" stroke-opacity="0.25" />
  <rect x="1301" y="85" width="178" height="118" fill="#F39C12" />
  <text x="1371.01" y="136.74" fill="#000000" text-anchor="start" dominant-baseline="text-before-edge" font-size="12" font-family="Inter" xml:space="preserve">Card 6</text>
  <rect x="1300.5" y="84.5" width="179" height="119" fill="none" stroke="#000000" stroke-opacity="0.25" />
  <rect x="201" y="501" width="148" height="33" fill="#E74C3C" />
  <text x="224.09" y="510.24" fill="#000000" text-anchor="start" dominant-baseline="text-before-edge" font-size="12" font-family="Inter" xml:space="preserve">© 2024 Company</text>
  <rect x="200.5" y="500.5" width="149" height="34" fill="none" stroke="#000000" stroke-opacity="0.25" />
  <rect x="1271" y="503.5" width="68" height="28" fill="#3498DB" />
  <text x="1284" y="510.24" fill="#000000" text-anchor="start" dominant-baseline="text-before-edge" font-size="12" font-family="Inter" xml:space="preserve">Privacy</text>
  <rect x="1270.5" y="503" width="69" height="29" fill="none" stroke="#000000" stroke-opacity="0.25" />
  <rect x="1341" y="503.5" width="68" height="28" fill="#2ECC71" />
  <text x="1357.32" y="510.24" fill="#000000" text-anchor="start" dominant-baseline="text-before-edge" font-size="12" font-family="Inter" xml:space="preserve">Terms</text>
  <rect x="1340.5" y="503" width="69" height="29" fill="none" stroke="#000000" stroke-opacity="0.25" />
  <rect x="1411" y="503.5" width="68" height="28" fill="#4A90D9" />
  <text x="1422.72" y="510.24" fill="#000000" text-anchor="start" dominant-baseline="text-before-edge" font-size="12" font-family="Inter" xml:space="preserve">Contact</text>
  <rect x="1410.5" y="503" width="69" height="29" fill="none" stroke="#000000" stroke-opacity="0.25" />
  <rect x="0" y="0" width="800" height="24" fill="#FFFFFF" />
  <text x="0" y="0" fill="#000000" text-anchor="start" dominant-baseline="text-before-edge" font-size="15" font-family="Inter" xml:space="preserve">&lt; Back</text>
  <text x="73.18" y="0" fill="#000000" text-anchor="start" dominant-baseline="text-before-edge" font-size="15" font-family="Inter" xml:space="preserve">FlexBox Layout</text>
  <g transform="translate(100 277.56884765625)" opacity="0.9">
    <polygon points="0,0 0,12 3,9 5,12 7,11 5,8 9,8" fill="white" stroke="black" stroke-width="0.7"/>
  </g>
</svg>
