<?xml version="1.0" encoding="UTF-8"?>
<svg viewBox="0 0 700 300" xmlns="http://www.w3.org/2000/svg" font-family="Inter,system-ui,sans-serif" font-size="11">
  <!-- Mobile -->
  <rect x="10" y="10" width="140" height="280" rx="18" fill="#111" stroke="#444" stroke-width="1.5"/>
  <rect x="20" y="20" width="120" height="180" rx="4" fill="#1DB954" opacity=".18"/>
  <text x="80" y="115" fill="#1DB954" text-anchor="middle" font-size="28">♪</text>
  <rect x="20" y="208" width="120" height="32" rx="16" fill="#1DB954" opacity=".9"/>
  <text x="80" y="228" fill="#fff" text-anchor="middle" font-weight="600" font-size="10">▶  PLAY</text>
  <text x="80" y="265" fill="#888" text-anchor="middle" font-size="9">⊕ Mobile — 44pt buttons</text>

  <!-- Tablet -->
  <rect x="180" y="30" width="200" height="240" rx="12" fill="#111" stroke="#444" stroke-width="1.5"/>
  <rect x="180" y="30" width="72" height="240" rx="12" fill="#0a0a0a" stroke="#333" stroke-width="1"/>
  <text x="216" y="90" fill="#1DB954" text-anchor="middle" font-size="11">Home</text>
  <text x="216" y="115" fill="#888" text-anchor="middle" font-size="11">Search</text>
  <text x="216" y="140" fill="#888" text-anchor="middle" font-size="11">Library</text>
  <rect x="260" y="50" width="108" height="70" rx="4" fill="#1DB954" opacity=".18"/>
  <text x="314" y="91" fill="#1DB954" text-anchor="middle" font-size="22">♪</text>
  <rect x="260" y="130" width="108" height="28" rx="14" fill="#1DB954" opacity=".9"/>
  <text x="314" y="148" fill="#fff" text-anchor="middle" font-weight="600" font-size="10">▶  PLAY</text>
  <text x="280" y="282" fill="#888" text-anchor="middle" font-size="9">⊕ Tablet — side nav</text>

  <!-- Desktop -->
  <rect x="410" y="20" width="270" height="260" rx="6" fill="#111" stroke="#444" stroke-width="1.5"/>
  <rect x="410" y="20" width="80" height="260" rx="6" fill="#0a0a0a" stroke="#333" stroke-width="1"/>
  <text x="450" y="60" fill="#1DB954" text-anchor="middle" font-size="10" font-weight="600">Home</text>
  <text x="450" y="80" fill="#888" text-anchor="middle" font-size="10">Search</text>
  <text x="450" y="100" fill="#888" text-anchor="middle" font-size="10">Library</text>
  <text x="450" y="120" fill="#888" text-anchor="middle" font-size="10">Liked</text>
  <!-- content area -->
  <rect x="498" y="30" width="174" height="100" rx="3" fill="#1a1a1a"/>
  <text x="585" y="85" fill="#1DB954" text-anchor="middle" font-size="18">♪</text>
  <!-- dense track list -->
  <rect x="498" y="138" width="174" height="16" rx="2" fill="#1a1a1a"/>
  <rect x="498" y="158" width="174" height="16" rx="2" fill="#222"/>
  <rect x="498" y="178" width="174" height="16" rx="2" fill="#1a1a1a"/>
  <!-- playback bar -->
  <rect x="410" y="240" width="270" height="40" rx="0" fill="#181818" stroke="#333" stroke-width=".5"/>
  <text x="545" y="264" fill="#fff" text-anchor="middle" font-size="11">▶  ⏭  ♡  🔊</text>
  <text x="545" y="290" fill="#888" text-anchor="middle" font-size="9">⊕ Desktop — dense layout, 8pt hit areas</text>
</svg>
