<?xml version="1.0" encoding="UTF-8"?>
<svg viewBox="0 0 480 160" xmlns="http://www.w3.org/2000/svg" font-family="Inter,system-ui,sans-serif" font-size="9">
  <!-- Title -->
  <text x="8" y="14" fill="#ccc" font-size="10" font-weight="600">Tonal palette — Primary (blue), Secondary (green), Neutral</text>
  <!-- Tone labels -->
  <text x="8"   y="35" fill="#999" text-anchor="middle">0</text>
  <text x="46"  y="35" fill="#999" text-anchor="middle">10</text>
  <text x="84"  y="35" fill="#999" text-anchor="middle">20</text>
  <text x="122" y="35" fill="#999" text-anchor="middle">30</text>
  <text x="160" y="35" fill="#999" text-anchor="middle">40</text>
  <text x="198" y="35" fill="#999" text-anchor="middle">50</text>
  <text x="236" y="35" fill="#999" text-anchor="middle">60</text>
  <text x="274" y="35" fill="#999" text-anchor="middle">70</text>
  <text x="312" y="35" fill="#999" text-anchor="middle">80</text>
  <text x="350" y="35" fill="#999" text-anchor="middle">90</text>
  <text x="388" y="35" fill="#999" text-anchor="middle">95</text>
  <text x="426" y="35" fill="#999" text-anchor="middle">99</text>
  <text x="460" y="35" fill="#999" text-anchor="middle">100</text>
  <!-- Primary ramp (blue) -->
  <text x="8" y="62" fill="#ccc" font-size="8">P</text>
  <rect x="20"  y="42" width="30" height="20" rx="2" fill="#000080"/>
  <rect x="58"  y="42" width="30" height="20" rx="2" fill="#00008b"/>
  <rect x="96"  y="42" width="30" height="20" rx="2" fill="#0000cd"/>
  <rect x="134" y="42" width="30" height="20" rx="2" fill="#1a1aff"/>
  <rect x="172" y="42" width="30" height="20" rx="2" fill="#4040ff"/>
  <rect x="210" y="42" width="30" height="20" rx="2" fill="#6060ff"/>
  <rect x="248" y="42" width="30" height="20" rx="2" fill="#8080ff"/>
  <rect x="286" y="42" width="30" height="20" rx="2" fill="#9999ff"/>
  <rect x="324" y="42" width="30" height="20" rx="2" fill="#b3b3ff"/>
  <rect x="362" y="42" width="30" height="20" rx="2" fill="#ccccff"/>
  <rect x="400" y="42" width="30" height="20" rx="2" fill="#e0e0ff"/>
  <rect x="438" y="42" width="30" height="20" rx="2" fill="#f0f0ff"/>
  <!-- Secondary ramp (green) -->
  <text x="8" y="90" fill="#ccc" font-size="8">S</text>
  <rect x="20"  y="70" width="30" height="20" rx="2" fill="#004000"/>
  <rect x="58"  y="70" width="30" height="20" rx="2" fill="#006000"/>
  <rect x="96"  y="70" width="30" height="20" rx="2" fill="#008000"/>
  <rect x="134" y="70" width="30" height="20" rx="2" fill="#1aaa1a"/>
  <rect x="172" y="70" width="30" height="20" rx="2" fill="#28c028"/>
  <rect x="210" y="70" width="30" height="20" rx="2" fill="#3dd63d"/>
  <rect x="248" y="70" width="30" height="20" rx="2" fill="#66e066"/>
  <rect x="286" y="70" width="30" height="20" rx="2" fill="#80e680"/>
  <rect x="324" y="70" width="30" height="20" rx="2" fill="#a3f0a3"/>
  <rect x="362" y="70" width="30" height="20" rx="2" fill="#c0f5c0"/>
  <rect x="400" y="70" width="30" height="20" rx="2" fill="#d9f9d9"/>
  <rect x="438" y="70" width="30" height="20" rx="2" fill="#edfaed"/>
  <!-- Neutral ramp (gray) -->
  <text x="8" y="118" fill="#ccc" font-size="8">N</text>
  <rect x="20"  y="98" width="30" height="20" rx="2" fill="#000000"/>
  <rect x="58"  y="98" width="30" height="20" rx="2" fill="#1a1a1a"/>
  <rect x="96"  y="98" width="30" height="20" rx="2" fill="#333333"/>
  <rect x="134" y="98" width="30" height="20" rx="2" fill="#4d4d4d"/>
  <rect x="172" y="98" width="30" height="20" rx="2" fill="#666666"/>
  <rect x="210" y="98" width="30" height="20" rx="2" fill="#808080"/>
  <rect x="248" y="98" width="30" height="20" rx="2" fill="#999999"/>
  <rect x="286" y="98" width="30" height="20" rx="2" fill="#b3b3b3"/>
  <rect x="324" y="98" width="30" height="20" rx="2" fill="#cccccc"/>
  <rect x="362" y="98" width="30" height="20" rx="2" fill="#e0e0e0"/>
  <rect x="400" y="98" width="30" height="20" rx="2" fill="#f0f0f0"/>
  <rect x="438" y="98" width="30" height="20" rx="2" fill="#f8f8f8"/>
  <!-- Accent / data-viz ramp (orange) -->
  <text x="8" y="146" fill="#ccc" font-size="8">A</text>
  <rect x="20"  y="126" width="30" height="20" rx="2" fill="#401500"/>
  <rect x="58"  y="126" width="30" height="20" rx="2" fill="#7a2800"/>
  <rect x="96"  y="126" width="30" height="20" rx="2" fill="#c04000"/>
  <rect x="134" y="126" width="30" height="20" rx="2" fill="#e05800"/>
  <rect x="172" y="126" width="30" height="20" rx="2" fill="#ff7a1a"/>
  <rect x="210" y="126" width="30" height="20" rx="2" fill="#ff993d"/>
  <rect x="248" y="126" width="30" height="20" rx="2" fill="#ffb366"/>
  <rect x="286" y="126" width="30" height="20" rx="2" fill="#ffc080"/>
  <rect x="324" y="126" width="30" height="20" rx="2" fill="#ffd4a3"/>
  <rect x="362" y="126" width="30" height="20" rx="2" fill="#ffe4c4"/>
  <rect x="400" y="126" width="30" height="20" rx="2" fill="#fff0dd"/>
  <rect x="438" y="126" width="30" height="20" rx="2" fill="#fff8f0"/>
</svg>
