<?xml version="1.0" encoding="UTF-8"?>
<svg viewBox="0 0 480 200" xmlns="http://www.w3.org/2000/svg" font-family="Inter,system-ui,sans-serif" font-size="12">
  <rect width="480" height="200" fill="#fafafa" rx="8"/>
  <text x="16" y="18" fill="#444" font-size="10" font-weight="600">SearchBox — hit area expansion</text>

  <!-- Full search bar (desktop) -->
  <text x="16" y="40" fill="#888" font-size="9">Desktop: full-width search bar</text>
  <rect x="16" y="46" width="320" height="36" rx="18" fill="#f0f0f0" stroke="#e0e0e0" stroke-width="1"/>
  <text x="42" y="69" fill="#333" font-size="13">🔍</text>
  <text x="60" y="69" fill="#888" font-size="12">Search…</text>

  <!-- Icon-only mode (mobile dense header) -->
  <text x="16" y="110" fill="#888" font-size="9">Mobile: icon-only — small visual (16pt) · large hit area (44pt)</text>
  <!-- Hit area indicator -->
  <rect x="28" y="118" width="44" height="44" rx="22" fill="#4040ff" opacity=".08" stroke="#4040ff" stroke-width=".8" stroke-dasharray="3,2"/>
  <!-- Visual icon -->
  <rect x="44" y="134" width="16" height="16" rx="4" fill="none" stroke="#444" stroke-width="1.5"/>
  <line x1="57" y1="147" x2="63" y2="153" stroke="#444" stroke-width="1.5" stroke-linecap="round"/>
  <circle cx="51" cy="141" r="5" fill="none" stroke="#444" stroke-width="1.5"/>
  <!-- Label hit area -->
  <text x="90" y="138" fill="#aaa" font-size="9">Hit area = 44 × 44 pt (MinimumHitTestRadius × 2)</text>
  <text x="90" y="152" fill="#aaa" font-size="9">Visual icon = 16 × 16 pt</text>
  <text x="90" y="166" fill="#aaa" font-size="9">Hit area is transparent, extends symmetrically</text>

  <!-- Annotation lines -->
  <line x1="28"  y1="140" x2="28"  y2="170" stroke="#4040ff" stroke-width=".5" stroke-dasharray="2,2"/>
  <line x1="72"  y1="140" x2="72"  y2="170" stroke="#4040ff" stroke-width=".5" stroke-dasharray="2,2"/>
  <line x1="44"  y1="185" x2="44"  y2="170" stroke="#aaa" stroke-width=".5"/>
  <line x1="60"  y1="185" x2="60"  y2="170" stroke="#aaa" stroke-width=".5"/>
  <line x1="28"  y1="175" x2="72"  y2="175" stroke="#4040ff" stroke-width=".8"/>
  <text x="50"   y="188"  fill="#4040ff" text-anchor="middle" font-size="8">44 pt</text>
  <line x1="44"  y1="180" x2="60"  y2="180" stroke="#aaa" stroke-width=".8"/>
  <text x="52"   y="192"  fill="#aaa" text-anchor="middle" font-size="7">16 pt</text>
</svg>
