<?xml version="1.0" encoding="UTF-8"?>
<svg viewBox="0 0 520 200" xmlns="http://www.w3.org/2000/svg" font-family="Inter,system-ui,sans-serif" font-size="11">
  <rect width="520" height="200" fill="#fafafa" rx="8"/>
  <text x="14" y="16" fill="#333" font-size="10" font-weight="700">Chip / Tag variants</text>

  <!-- Row 1: filter chips -->
  <text x="14" y="38" fill="#888" font-size="9">Filter chips</text>

  <!-- Primary container chip (selected) -->
  <rect x="14" y="46" width="72" height="28" rx="14" fill="#e0e0ff"/>
  <text x="50" y="64" fill="#1a1aff" text-anchor="middle" font-size="10" font-weight="600">✓  Music</text>

  <!-- Surface chip (unselected) -->
  <rect x="94" y="46" width="80" height="28" rx="14" fill="#f0f0f0" stroke="#c8c8c8" stroke-width="1"/>
  <text x="134" y="64" fill="#444" text-anchor="middle" font-size="10">Podcasts</text>

  <!-- Surface chip -->
  <rect x="182" y="46" width="72" height="28" rx="14" fill="#f0f0f0" stroke="#c8c8c8" stroke-width="1"/>
  <text x="218" y="64" fill="#444" text-anchor="middle" font-size="10">Video</text>

  <!-- Secondary container chip -->
  <rect x="262" y="46" width="76" height="28" rx="14" fill="#d9f9d9"/>
  <text x="300" y="64" fill="#003a00" text-anchor="middle" font-size="10" font-weight="600">✓  Live</text>

  <!-- Token note -->
  <text x="14" y="90" fill="#4040ff" font-size="8">Selected: Primary.Container bg · Primary.OnContainer text</text>
  <text x="14" y="102" fill="#888"   font-size="8">Unselected: Surface.Container bg · Application.Foreground text · Outline border</text>

  <!-- Row 2: label tags -->
  <text x="14" y="124" fill="#888" font-size="9">Status tags (read-only)</text>
  <rect x="14"  y="132" width="56" height="22" rx="4" fill="#d9f9d9"/>
  <text x="42"  y="147" fill="#003a00" text-anchor="middle" font-size="9" font-weight="600">Active</text>
  <rect x="78"  y="132" width="60" height="22" rx="4" fill="#fff0dd"/>
  <text x="108" y="147" fill="#7a4000" text-anchor="middle" font-size="9" font-weight="600">Pending</text>
  <rect x="146" y="132" width="56" height="22" rx="4" fill="#ffe0e0"/>
  <text x="174" y="147" fill="#880000" text-anchor="middle" font-size="9" font-weight="600">Error</text>
  <rect x="210" y="132" width="64" height="22" rx="4" fill="#e8e8ff"/>
  <text x="242" y="147" fill="#1a1aff" text-anchor="middle" font-size="9" font-weight="600">Featured</text>
  <rect x="282" y="132" width="56" height="22" rx="4" fill="#f0f0f0"/>
  <text x="310" y="147" fill="#666" text-anchor="middle" font-size="9">Inactive</text>

  <!-- Token note row 2 -->
  <text x="14" y="172" fill="#1DB954" font-size="8">Secondary.Container · Error.Container · Primary.Container (each with On-variant text)</text>
  <text x="14" y="184" fill="#888"   font-size="8">Small radius → Shape.Small  ·  Larger radius (pill) → Shape.Full</text>

  <!-- Chip with close icon -->
  <rect x="14"  y="160" width="96" height="28" rx="14" fill="#e0e0ff"/>
  <text x="50"  y="178" fill="#1a1aff" text-anchor="middle" font-size="10" font-weight="600">Music</text>
  <circle cx="99" cy="174" r="8" fill="#c0c0f0"/>
  <text x="99"  y="178" fill="#4040aa" text-anchor="middle" font-size="10">×</text>

  <rect x="118" y="160" width="96" height="28" rx="14" fill="#d9f9d9"/>
  <text x="154" y="178" fill="#003a00" text-anchor="middle" font-size="10" font-weight="600">Podcast</text>
  <circle cx="203" cy="174" r="8" fill="#b0ebb0"/>
  <text x="203" y="178" fill="#005000" text-anchor="middle" font-size="10">×</text>
</svg>
