<?xml version="1.0" encoding="UTF-8"?>
<svg viewBox="0 0 480 60" xmlns="http://www.w3.org/2000/svg" font-family="Inter,system-ui,sans-serif" font-size="9">
  <rect width="480" height="60" fill="#fafafa" rx="6"/>
  <text x="12" y="14" fill="#444" font-size="10" font-weight="600">DataViz palette — 8 series colors</text>
  <rect x="12"  y="22" width="44" height="28" rx="4" fill="#4040ff"/>
  <rect x="62"  y="22" width="44" height="28" rx="4" fill="#1DB954"/>
  <rect x="112" y="22" width="44" height="28" rx="4" fill="#ff7a1a"/>
  <rect x="162" y="22" width="44" height="28" rx="4" fill="#e03060"/>
  <rect x="212" y="22" width="44" height="28" rx="4" fill="#9b59b6"/>
  <rect x="262" y="22" width="44" height="28" rx="4" fill="#00bcd4"/>
  <rect x="312" y="22" width="44" height="28" rx="4" fill="#f0c040"/>
  <rect x="362" y="22" width="44" height="28" rx="4" fill="#795548"/>
  <text x="34"  y="58" fill="#666" text-anchor="middle">D[0]</text>
  <text x="84"  y="58" fill="#666" text-anchor="middle">D[1]</text>
  <text x="134" y="58" fill="#666" text-anchor="middle">D[2]</text>
  <text x="184" y="58" fill="#666" text-anchor="middle">D[3]</text>
  <text x="234" y="58" fill="#666" text-anchor="middle">D[4]</text>
  <text x="284" y="58" fill="#666" text-anchor="middle">D[5]</text>
  <text x="334" y="58" fill="#666" text-anchor="middle">D[6]</text>
  <text x="384" y="58" fill="#666" text-anchor="middle">D[7]</text>
</svg>
