<svg xmlns="http://www.w3.org/2000/svg" width="800" height="560" viewBox="0 0 800 560">
  <rect x="200" y="24" width="1" height="536" fill="#E0E0E0" />
  <text x="3" y="27" fill="#000000" text-anchor="start" dominant-baseline="text-before-edge" font-size="15" font-family="Inter" xml:space="preserve">BorderLayer</text>
  <text x="3" y="51.15" fill="#000000" text-anchor="start" dominant-baseline="text-before-edge" font-size="15" font-family="Inter" xml:space="preserve">TextBox (layered)</text>
  <text x="3" y="75.3" fill="#000000" text-anchor="start" dominant-baseline="text-before-edge" font-size="15" font-family="Inter" xml:space="preserve">DockLayer widgets</text>
  <rect x="3" y="99.45" width="194" height="18.15" fill="#D3D3D3" />
  <text x="3" y="99.45" fill="#000000" text-anchor="start" dominant-baseline="text-before-edge" font-size="15" font-family="Inter" xml:space="preserve">Overlay (IOverlay)</text>
  <rect x="200" y="24" width="600" height="536" fill="#F5F5F5" />
  <path d="M 426 244 H 574 A 6 6 0 0 1 580 250 V 274 A 6 6 0 0 1 574 280 H 426 A 6 6 0 0 1 420 274 V 250 A 6 6 0 0 1 426 244 Z " fill="#0078D4" fill-rule="nonzero" />
  <text x="500" y="262" fill="#FFFFFF" text-anchor="middle" dominant-baseline="central" font-size="14" font-family="Segoe UI" xml:space="preserve">Open Overlay</text>
  <text x="500" y="296" fill="#808080" text-anchor="middle" dominant-baseline="text-before-edge" font-size="12" font-family="Segoe UI" xml:space="preserve">IOverlay — cross-platform in-window overlay, auto-dismiss on outside click</text>
  <rect x="0" y="0" width="800" height="24" fill="#FFFFFF" />
  <text x="0" y="0" fill="#000000" text-anchor="start" dominant-baseline="text-before-edge" font-size="15" font-family="Inter" xml:space="preserve">&lt; Back</text>
  <text x="73.18" y="0" fill="#000000" text-anchor="start" dominant-baseline="text-before-edge" font-size="15" font-family="Inter" xml:space="preserve">Layers</text>
  <g transform="translate(100 108.52294921875)" opacity="0.9">
    <polygon points="0,0 0,12 3,9 5,12 7,11 5,8 9,8" fill="white" stroke="black" stroke-width="0.7"/>
  </g>
</svg>
