<svg xmlns="http://www.w3.org/2000/svg" width="800" height="560" viewBox="0 0 800 560">
  <rect x="200" y="24" width="1" height="536" fill="#E0E0E0" />
  <text x="3" y="27" fill="#000000" text-anchor="start" dominant-baseline="text-before-edge" font-size="15" font-family="Inter" xml:space="preserve">Basic fixed grid</text>
  <text x="3" y="51.15" fill="#000000" text-anchor="start" dominant-baseline="text-before-edge" font-size="15" font-family="Inter" xml:space="preserve">Grid with gaps</text>
  <text x="3" y="75.3" fill="#000000" text-anchor="start" dominant-baseline="text-before-edge" font-size="15" font-family="Inter" xml:space="preserve">Fractional units</text>
  <text x="3" y="99.45" fill="#000000" text-anchor="start" dominant-baseline="text-before-edge" font-size="15" font-family="Inter" xml:space="preserve">Auto tracks</text>
  <text x="3" y="123.6" fill="#000000" text-anchor="start" dominant-baseline="text-before-edge" font-size="15" font-family="Inter" xml:space="preserve">Spanning cells</text>
  <rect x="3" y="147.75" width="194" height="18.15" fill="#D3D3D3" />
  <text x="3" y="147.75" fill="#000000" text-anchor="start" dominant-baseline="text-before-edge" font-size="15" font-family="Inter" xml:space="preserve">Named areas</text>
  <text x="3" y="171.9" fill="#000000" text-anchor="start" dominant-baseline="text-before-edge" font-size="15" font-family="Inter" xml:space="preserve">Auto flow</text>
  <text x="3" y="196.05" fill="#000000" text-anchor="start" dominant-baseline="text-before-edge" font-size="15" font-family="Inter" xml:space="preserve">Alignment</text>
  <text x="3" y="220.2" fill="#000000" text-anchor="start" dominant-baseline="text-before-edge" font-size="15" font-family="Inter" xml:space="preserve">Fixed container</text>
  <text x="3" y="244.34" fill="#000000" text-anchor="start" dominant-baseline="text-before-edge" font-size="15" font-family="Inter" xml:space="preserve">Scrollable grid</text>
  <text x="3" y="268.49" fill="#000000" text-anchor="start" dominant-baseline="text-before-edge" font-size="15" font-family="Inter" xml:space="preserve">Nested grids</text>
  <text x="3" y="292.64" fill="#000000" text-anchor="start" dominant-baseline="text-before-edge" font-size="15" font-family="Inter" xml:space="preserve">MinMax tracks</text>
  <rect x="200" y="24" width="600" height="536" fill="#ECECEC" />
  <path d="M 230 48 H 770 A 6 6 0 0 1 776 54 V 92 A 6 6 0 0 1 770 98 H 230 A 6 6 0 0 1 224 92 V 54 A 6 6 0 0 1 230 48 Z " fill="#4A90D9" fill-rule="nonzero" />
  <text x="477.45" y="65.14" fill="#000000" text-anchor="start" dominant-baseline="text-before-edge" font-size="13" font-family="Inter" xml:space="preserve">Header</text>
  <path d="M 230 106 H 378 A 6 6 0 0 1 384 112 V 482 A 6 6 0 0 1 378 488 H 230 A 6 6 0 0 1 224 482 V 112 A 6 6 0 0 1 230 106 Z " fill="#52BE80" fill-rule="nonzero" />
  <text x="280.35" y="289.14" fill="#000000" text-anchor="start" dominant-baseline="text-before-edge" font-size="13" font-family="Inter" xml:space="preserve">Sidebar</text>
  <path d="M 398 107 H 770 A 5 5 0 0 1 775 112 V 482 A 5 5 0 0 1 770 487 H 398 A 5 5 0 0 1 393 482 V 112 A 5 5 0 0 1 398 107 Z " fill="#F5F5F5" fill-rule="nonzero" />
  <text x="559.69" y="289.14" fill="#000000" text-anchor="start" dominant-baseline="text-before-edge" font-size="13" font-family="Inter" xml:space="preserve">Content</text>
  <path d="M 398 106.5 H 770 A 5.5 5.5 0 0 1 775.5 112 V 482 A 5.5 5.5 0 0 1 770 487.5 H 398 A 5.5 5.5 0 0 1 392.5 482 V 112 A 5.5 5.5 0 0 1 398 106.5 Z " fill="none" stroke="#CCCCCC" />
  <path d="M 230 496 H 770 A 6 6 0 0 1 776 502 V 530 A 6 6 0 0 1 770 536 H 230 A 6 6 0 0 1 224 530 V 502 A 6 6 0 0 1 230 496 Z " fill="#AF7AC5" fill-rule="nonzero" />
  <text x="480.33" y="508.14" fill="#000000" text-anchor="start" dominant-baseline="text-before-edge" font-size="13" font-family="Inter" xml:space="preserve">Footer</text>
  <rect x="0" y="0" width="800" height="24" fill="#FFFFFF" />
  <text x="0" y="0" fill="#000000" text-anchor="start" dominant-baseline="text-before-edge" font-size="15" font-family="Inter" xml:space="preserve">&lt; Back</text>
  <text x="73.18" y="0" fill="#000000" text-anchor="start" dominant-baseline="text-before-edge" font-size="15" font-family="Inter" xml:space="preserve">Grid Layout</text>
  <g transform="translate(100 156.82177734375)" opacity="0.9">
    <polygon points="0,0 0,12 3,9 5,12 7,11 5,8 9,8" fill="white" stroke="black" stroke-width="0.7"/>
  </g>
</svg>
