<svg xmlns="http://www.w3.org/2000/svg" width="800" height="560" viewBox="0 0 800 560">
  <rect x="200" y="24" width="1" height="536" fill="#E0E0E0" />
  <text x="3" y="27" fill="#000000" text-anchor="start" dominant-baseline="text-before-edge" font-size="15" font-family="Inter" xml:space="preserve">Basic fixed grid</text>
  <text x="3" y="51.15" fill="#000000" text-anchor="start" dominant-baseline="text-before-edge" font-size="15" font-family="Inter" xml:space="preserve">Grid with gaps</text>
  <text x="3" y="75.3" fill="#000000" text-anchor="start" dominant-baseline="text-before-edge" font-size="15" font-family="Inter" xml:space="preserve">Fractional units</text>
  <text x="3" y="99.45" fill="#000000" text-anchor="start" dominant-baseline="text-before-edge" font-size="15" font-family="Inter" xml:space="preserve">Auto tracks</text>
  <text x="3" y="123.6" fill="#000000" text-anchor="start" dominant-baseline="text-before-edge" font-size="15" font-family="Inter" xml:space="preserve">Spanning cells</text>
  <text x="3" y="147.75" fill="#000000" text-anchor="start" dominant-baseline="text-before-edge" font-size="15" font-family="Inter" xml:space="preserve">Named areas</text>
  <text x="3" y="171.9" fill="#000000" text-anchor="start" dominant-baseline="text-before-edge" font-size="15" font-family="Inter" xml:space="preserve">Auto flow</text>
  <text x="3" y="196.05" fill="#000000" text-anchor="start" dominant-baseline="text-before-edge" font-size="15" font-family="Inter" xml:space="preserve">Alignment</text>
  <rect x="3" y="220.2" width="194" height="18.15" fill="#D3D3D3" />
  <text x="3" y="220.2" fill="#000000" text-anchor="start" dominant-baseline="text-before-edge" font-size="15" font-family="Inter" xml:space="preserve">Fixed container</text>
  <text x="3" y="244.34" fill="#000000" text-anchor="start" dominant-baseline="text-before-edge" font-size="15" font-family="Inter" xml:space="preserve">Scrollable grid</text>
  <text x="3" y="268.49" fill="#000000" text-anchor="start" dominant-baseline="text-before-edge" font-size="15" font-family="Inter" xml:space="preserve">Nested grids</text>
  <text x="3" y="292.64" fill="#000000" text-anchor="start" dominant-baseline="text-before-edge" font-size="15" font-family="Inter" xml:space="preserve">MinMax tracks</text>
  <rect x="200" y="24" width="600" height="536" fill="#F0F0F0" />
  <path d="M 348 164 H 652 A 6 6 0 0 1 658 170 V 414 A 6 6 0 0 1 652 420 H 348 A 6 6 0 0 1 342 414 V 170 A 6 6 0 0 1 348 164 Z " fill="#FFFFFF" fill-rule="nonzero" />
  <path d="M 356 174 H 419 A 4 4 0 0 1 423 178 V 244.67 A 4 4 0 0 1 419 248.67 H 356 A 4 4 0 0 1 352 244.67 V 178 A 4 4 0 0 1 356 174 Z " fill="#4A90D9" fill-rule="nonzero" />
  <text x="383.71" y="204.68" fill="#000000" text-anchor="start" dominant-baseline="text-before-edge" font-size="11" font-family="Inter" xml:space="preserve">A</text>
  <path d="M 433 174 H 567 A 4 4 0 0 1 571 178 V 244.67 A 4 4 0 0 1 567 248.67 H 433 A 4 4 0 0 1 429 244.67 V 178 A 4 4 0 0 1 433 174 Z " fill="#52BE80" fill-rule="nonzero" />
  <text x="496.4" y="204.68" fill="#000000" text-anchor="start" dominant-baseline="text-before-edge" font-size="11" font-family="Inter" xml:space="preserve">B</text>
  <path d="M 581 174 H 644 A 4 4 0 0 1 648 178 V 244.67 A 4 4 0 0 1 644 248.67 H 581 A 4 4 0 0 1 577 244.67 V 178 A 4 4 0 0 1 581 174 Z " fill="#AF7AC5" fill-rule="nonzero" />
  <text x="608.48" y="204.68" fill="#000000" text-anchor="start" dominant-baseline="text-before-edge" font-size="11" font-family="Inter" xml:space="preserve">C</text>
  <path d="M 356 254.67 H 419 A 4 4 0 0 1 423 258.67 V 325.33 A 4 4 0 0 1 419 329.33 H 356 A 4 4 0 0 1 352 325.33 V 258.67 A 4 4 0 0 1 356 254.67 Z " fill="#F0B27A" fill-rule="nonzero" />
  <text x="383.53" y="285.35" fill="#000000" text-anchor="start" dominant-baseline="text-before-edge" font-size="11" font-family="Inter" xml:space="preserve">D</text>
  <path d="M 433 254.67 H 567 A 4 4 0 0 1 571 258.67 V 325.33 A 4 4 0 0 1 567 329.33 H 433 A 4 4 0 0 1 429 325.33 V 258.67 A 4 4 0 0 1 433 254.67 Z " fill="#85C1E9" fill-rule="nonzero" />
  <text x="469.78" y="285.35" fill="#000000" text-anchor="start" dominant-baseline="text-before-edge" font-size="11" font-family="Inter" xml:space="preserve">E (2fr wide)</text>
  <path d="M 581 254.67 H 644 A 4 4 0 0 1 648 258.67 V 325.33 A 4 4 0 0 1 644 329.33 H 581 A 4 4 0 0 1 577 325.33 V 258.67 A 4 4 0 0 1 581 254.67 Z " fill="#82E0AA" fill-rule="nonzero" />
  <text x="609.25" y="285.35" fill="#000000" text-anchor="start" dominant-baseline="text-before-edge" font-size="11" font-family="Inter" xml:space="preserve">F</text>
  <path d="M 356 335.33 H 419 A 4 4 0 0 1 423 339.33 V 406 A 4 4 0 0 1 419 410 H 356 A 4 4 0 0 1 352 406 V 339.33 A 4 4 0 0 1 356 335.33 Z " fill="#F1948A" fill-rule="nonzero" />
  <text x="383.4" y="366.01" fill="#000000" text-anchor="start" dominant-baseline="text-before-edge" font-size="11" font-family="Inter" xml:space="preserve">G</text>
  <path d="M 433 335.33 H 567 A 4 4 0 0 1 571 339.33 V 406 A 4 4 0 0 1 567 410 H 433 A 4 4 0 0 1 429 406 V 339.33 A 4 4 0 0 1 433 335.33 Z " fill="#FAD7A0" fill-rule="nonzero" />
  <text x="495.91" y="366.01" fill="#000000" text-anchor="start" dominant-baseline="text-before-edge" font-size="11" font-family="Inter" xml:space="preserve">H</text>
  <path d="M 581 335.33 H 644 A 4 4 0 0 1 648 339.33 V 406 A 4 4 0 0 1 644 410 H 581 A 4 4 0 0 1 577 406 V 339.33 A 4 4 0 0 1 581 335.33 Z " fill="#A9CCE3" fill-rule="nonzero" />
  <text x="611.02" y="366.01" fill="#000000" text-anchor="start" dominant-baseline="text-before-edge" font-size="11" font-family="Inter" xml:space="preserve">I</text>
  <path d="M 348 163 H 652 A 7 7 0 0 1 659 170 V 414 A 7 7 0 0 1 652 421 H 348 A 7 7 0 0 1 341 414 V 170 A 7 7 0 0 1 348 163 Z " fill="none" stroke="#CCCCCC" stroke-width="2" />
  <rect x="0" y="0" width="800" height="24" fill="#FFFFFF" />
  <text x="0" y="0" fill="#000000" text-anchor="start" dominant-baseline="text-before-edge" font-size="15" font-family="Inter" xml:space="preserve">&lt; Back</text>
  <text x="73.18" y="0" fill="#000000" text-anchor="start" dominant-baseline="text-before-edge" font-size="15" font-family="Inter" xml:space="preserve">Grid Layout</text>
  <g transform="translate(100 229.27001953125)" opacity="0.9">
    <polygon points="0,0 0,12 3,9 5,12 7,11 5,8 9,8" fill="white" stroke="black" stroke-width="0.7"/>
  </g>
</svg>
