<svg xmlns="http://www.w3.org/2000/svg" width="800" height="560" viewBox="0 0 800 560">
  <rect x="200" y="24" width="1" height="536" fill="#E0E0E0" />
  <text x="3" y="27" fill="#000000" text-anchor="start" dominant-baseline="text-before-edge" font-size="15" font-family="Inter" xml:space="preserve">Basic fixed grid</text>
  <text x="3" y="51.15" fill="#000000" text-anchor="start" dominant-baseline="text-before-edge" font-size="15" font-family="Inter" xml:space="preserve">Grid with gaps</text>
  <text x="3" y="75.3" fill="#000000" text-anchor="start" dominant-baseline="text-before-edge" font-size="15" font-family="Inter" xml:space="preserve">Fractional units</text>
  <text x="3" y="99.45" fill="#000000" text-anchor="start" dominant-baseline="text-before-edge" font-size="15" font-family="Inter" xml:space="preserve">Auto tracks</text>
  <text x="3" y="123.6" fill="#000000" text-anchor="start" dominant-baseline="text-before-edge" font-size="15" font-family="Inter" xml:space="preserve">Spanning cells</text>
  <text x="3" y="147.75" fill="#000000" text-anchor="start" dominant-baseline="text-before-edge" font-size="15" font-family="Inter" xml:space="preserve">Named areas</text>
  <text x="3" y="171.9" fill="#000000" text-anchor="start" dominant-baseline="text-before-edge" font-size="15" font-family="Inter" xml:space="preserve">Auto flow</text>
  <text x="3" y="196.05" fill="#000000" text-anchor="start" dominant-baseline="text-before-edge" font-size="15" font-family="Inter" xml:space="preserve">Alignment</text>
  <text x="3" y="220.2" fill="#000000" text-anchor="start" dominant-baseline="text-before-edge" font-size="15" font-family="Inter" xml:space="preserve">Fixed container</text>
  <text x="3" y="244.34" fill="#000000" text-anchor="start" dominant-baseline="text-before-edge" font-size="15" font-family="Inter" xml:space="preserve">Scrollable grid</text>
  <rect x="3" y="268.49" width="194" height="18.15" fill="#D3D3D3" />
  <text x="3" y="268.49" fill="#000000" text-anchor="start" dominant-baseline="text-before-edge" font-size="15" font-family="Inter" xml:space="preserve">Nested grids</text>
  <text x="3" y="292.64" fill="#000000" text-anchor="start" dominant-baseline="text-before-edge" font-size="15" font-family="Inter" xml:space="preserve">MinMax tracks</text>
  <rect x="200" y="24" width="600" height="536" fill="#F5F5F5" />
  <path d="M 230 48 H 488 A 6 6 0 0 1 494 54 V 280 A 6 6 0 0 1 488 286 H 230 A 6 6 0 0 1 224 280 V 54 A 6 6 0 0 1 230 48 Z " fill="#4A90D9" fill-rule="nonzero" />
  <text x="333.83" y="159.74" fill="#000000" text-anchor="start" dominant-baseline="text-before-edge" font-size="12" font-family="Inter" xml:space="preserve">Plain cell</text>
  <path d="M 512 49 H 770 A 5 5 0 0 1 775 54 V 280 A 5 5 0 0 1 770 285 H 512 A 5 5 0 0 1 507 280 V 54 A 5 5 0 0 1 512 49 Z " fill="#FDF2E9" fill-rule="nonzero" />
  <path d="M 518 57 H 593.33 A 3 3 0 0 1 596.33 60 V 274 A 3 3 0 0 1 593.33 277 H 518 A 3 3 0 0 1 515 274 V 60 A 3 3 0 0 1 518 57 Z " fill="#FAD7A0" fill-rule="nonzero" />
  <text x="552.58" y="160.35" fill="#000000" text-anchor="start" dominant-baseline="text-before-edge" font-size="11" font-family="Inter" xml:space="preserve">a</text>
  <path d="M 603.33 57 H 678.67 A 3 3 0 0 1 681.67 60 V 274 A 3 3 0 0 1 678.67 277 H 603.33 A 3 3 0 0 1 600.33 274 V 60 A 3 3 0 0 1 603.33 57 Z " fill="#F0B27A" fill-rule="nonzero" />
  <text x="637.63" y="160.35" fill="#000000" text-anchor="start" dominant-baseline="text-before-edge" font-size="11" font-family="Inter" xml:space="preserve">b</text>
  <path d="M 688.67 57 H 764 A 3 3 0 0 1 767 60 V 274 A 3 3 0 0 1 764 277 H 688.67 A 3 3 0 0 1 685.67 274 V 60 A 3 3 0 0 1 688.67 57 Z " fill="#E59B72" fill-rule="nonzero" />
  <text x="723.19" y="160.35" fill="#000000" text-anchor="start" dominant-baseline="text-before-edge" font-size="11" font-family="Inter" xml:space="preserve">c</text>
  <path d="M 512 48.5 H 770 A 5.5 5.5 0 0 1 775.5 54 V 280 A 5.5 5.5 0 0 1 770 285.5 H 512 A 5.5 5.5 0 0 1 506.5 280 V 54 A 5.5 5.5 0 0 1 512 48.5 Z " fill="none" stroke="#CCCCCC" />
  <path d="M 230 299 H 488 A 5 5 0 0 1 493 304 V 530 A 5 5 0 0 1 488 535 H 230 A 5 5 0 0 1 225 530 V 304 A 5 5 0 0 1 230 299 Z " fill="#E9F7EF" fill-rule="nonzero" />
  <path d="M 236 307 H 354 A 3 3 0 0 1 357 310 V 412 A 3 3 0 0 1 354 415 H 236 A 3 3 0 0 1 233 412 V 310 A 3 3 0 0 1 236 307 Z " fill="#82E0AA" fill-rule="nonzero" />
  <text x="292.76" y="354.35" fill="#000000" text-anchor="start" dominant-baseline="text-before-edge" font-size="11" font-family="Inter" xml:space="preserve">1</text>
  <path d="M 364 307 H 482 A 3 3 0 0 1 485 310 V 412 A 3 3 0 0 1 482 415 H 364 A 3 3 0 0 1 361 412 V 310 A 3 3 0 0 1 364 307 Z " fill="#52BE80" fill-rule="nonzero" />
  <text x="419.65" y="354.35" fill="#000000" text-anchor="start" dominant-baseline="text-before-edge" font-size="11" font-family="Inter" xml:space="preserve">2</text>
  <path d="M 236 419 H 354 A 3 3 0 0 1 357 422 V 524 A 3 3 0 0 1 354 527 H 236 A 3 3 0 0 1 233 524 V 422 A 3 3 0 0 1 236 419 Z " fill="#27AE60" fill-rule="nonzero" />
  <text x="291.6" y="466.35" fill="#000000" text-anchor="start" dominant-baseline="text-before-edge" font-size="11" font-family="Inter" xml:space="preserve">3</text>
  <path d="M 364 419 H 482 A 3 3 0 0 1 485 422 V 524 A 3 3 0 0 1 482 527 H 364 A 3 3 0 0 1 361 524 V 422 A 3 3 0 0 1 364 419 Z " fill="#1E8845" fill-rule="nonzero" />
  <text x="419.45" y="466.35" fill="#000000" text-anchor="start" dominant-baseline="text-before-edge" font-size="11" font-family="Inter" xml:space="preserve">4</text>
  <path d="M 230 298.5 H 488 A 5.5 5.5 0 0 1 493.5 304 V 530 A 5.5 5.5 0 0 1 488 535.5 H 230 A 5.5 5.5 0 0 1 224.5 530 V 304 A 5.5 5.5 0 0 1 230 298.5 Z " fill="none" stroke="#CCCCCC" />
  <path d="M 512 298 H 770 A 6 6 0 0 1 776 304 V 530 A 6 6 0 0 1 770 536 H 512 A 6 6 0 0 1 506 530 V 304 A 6 6 0 0 1 512 298 Z " fill="#AF7AC5" fill-rule="nonzero" />
  <text x="615.83" y="409.74" fill="#000000" text-anchor="start" dominant-baseline="text-before-edge" font-size="12" font-family="Inter" xml:space="preserve">Plain cell</text>
  <rect x="0" y="0" width="800" height="24" fill="#FFFFFF" />
  <text x="0" y="0" fill="#000000" text-anchor="start" dominant-baseline="text-before-edge" font-size="15" font-family="Inter" xml:space="preserve">&lt; Back</text>
  <text x="73.18" y="0" fill="#000000" text-anchor="start" dominant-baseline="text-before-edge" font-size="15" font-family="Inter" xml:space="preserve">Grid Layout</text>
  <g transform="translate(100 277.56884765625)" opacity="0.9">
    <polygon points="0,0 0,12 3,9 5,12 7,11 5,8 9,8" fill="white" stroke="black" stroke-width="0.7"/>
  </g>
</svg>
