<svg xmlns="http://www.w3.org/2000/svg" width="800" height="560" viewBox="0 0 800 560">
  <rect x="200" y="24" width="1" height="536" fill="#E0E0E0" />
  <text x="3" y="27" fill="#000000" text-anchor="start" dominant-baseline="text-before-edge" font-size="15" font-family="Inter" xml:space="preserve">Basic fixed grid</text>
  <text x="3" y="51.15" fill="#000000" text-anchor="start" dominant-baseline="text-before-edge" font-size="15" font-family="Inter" xml:space="preserve">Grid with gaps</text>
  <text x="3" y="75.3" fill="#000000" text-anchor="start" dominant-baseline="text-before-edge" font-size="15" font-family="Inter" xml:space="preserve">Fractional units</text>
  <text x="3" y="99.45" fill="#000000" text-anchor="start" dominant-baseline="text-before-edge" font-size="15" font-family="Inter" xml:space="preserve">Auto tracks</text>
  <text x="3" y="123.6" fill="#000000" text-anchor="start" dominant-baseline="text-before-edge" font-size="15" font-family="Inter" xml:space="preserve">Spanning cells</text>
  <text x="3" y="147.75" fill="#000000" text-anchor="start" dominant-baseline="text-before-edge" font-size="15" font-family="Inter" xml:space="preserve">Named areas</text>
  <text x="3" y="171.9" fill="#000000" text-anchor="start" dominant-baseline="text-before-edge" font-size="15" font-family="Inter" xml:space="preserve">Auto flow</text>
  <text x="3" y="196.05" fill="#000000" text-anchor="start" dominant-baseline="text-before-edge" font-size="15" font-family="Inter" xml:space="preserve">Alignment</text>
  <text x="3" y="220.2" fill="#000000" text-anchor="start" dominant-baseline="text-before-edge" font-size="15" font-family="Inter" xml:space="preserve">Fixed container</text>
  <text x="3" y="244.34" fill="#000000" text-anchor="start" dominant-baseline="text-before-edge" font-size="15" font-family="Inter" xml:space="preserve">Scrollable grid</text>
  <text x="3" y="268.49" fill="#000000" text-anchor="start" dominant-baseline="text-before-edge" font-size="15" font-family="Inter" xml:space="preserve">Nested grids</text>
  <rect x="3" y="292.64" width="194" height="18.15" fill="#D3D3D3" />
  <text x="3" y="292.64" fill="#000000" text-anchor="start" dominant-baseline="text-before-edge" font-size="15" font-family="Inter" xml:space="preserve">MinMax tracks</text>
  <rect x="200" y="24" width="600" height="536" fill="#F5F5F5" />
  <path d="M 228 49 H 340.92 A 3 3 0 0 1 343.92 52 V 104 A 3 3 0 0 1 340.92 107 H 228 A 3 3 0 0 1 225 104 V 52 A 3 3 0 0 1 228 49 Z " fill="#4A90D9" fill-rule="nonzero" />
  <text x="231" y="71.95" fill="#000000" text-anchor="start" dominant-baseline="text-before-edge" font-size="10" font-family="Inter" xml:space="preserve">minmax
(60,200)
→ fills</text>
  <path d="M 228 48.5 H 340.92 A 3.5 3.5 0 0 1 344.42 52 V 104 A 3.5 3.5 0 0 1 340.92 107.5 H 228 A 3.5 3.5 0 0 1 224.5 104 V 52 A 3.5 3.5 0 0 1 228 48.5 Z " fill="none" stroke="#000000" stroke-opacity="0.15" />
  <path d="M 358.92 49 H 441.1 A 3 3 0 0 1 444.1 52 V 104 A 3 3 0 0 1 441.1 107 H 358.92 A 3 3 0 0 1 355.92 104 V 52 A 3 3 0 0 1 358.92 49 Z " fill="#52BE80" fill-rule="nonzero" />
  <text x="361.92" y="71.95" fill="#000000" text-anchor="start" dominant-baseline="text-before-edge" font-size="10" font-family="Inter" xml:space="preserve">minmax
(80,160)</text>
  <path d="M 358.92 48.5 H 441.1 A 3.5 3.5 0 0 1 444.6 52 V 104 A 3.5 3.5 0 0 1 441.1 107.5 H 358.92 A 3.5 3.5 0 0 1 355.42 104 V 52 A 3.5 3.5 0 0 1 358.92 48.5 Z " fill="none" stroke="#000000" stroke-opacity="0.15" />
  <path d="M 459.1 49 H 538.46 A 3 3 0 0 1 541.46 52 V 104 A 3 3 0 0 1 538.46 107 H 459.1 A 3 3 0 0 1 456.1 104 V 52 A 3 3 0 0 1 459.1 49 Z " fill="#AF7AC5" fill-rule="nonzero" />
  <text x="462.1" y="71.95" fill="#000000" text-anchor="start" dominant-baseline="text-before-edge" font-size="10" font-family="Inter" xml:space="preserve">fit-content
(120)</text>
  <path d="M 459.1 48.5 H 538.46 A 3.5 3.5 0 0 1 541.96 52 V 104 A 3.5 3.5 0 0 1 538.46 107.5 H 459.1 A 3.5 3.5 0 0 1 455.6 104 V 52 A 3.5 3.5 0 0 1 459.1 48.5 Z " fill="none" stroke="#000000" stroke-opacity="0.15" />
  <path d="M 228 119 H 340.92 A 3 3 0 0 1 343.92 122 V 174 A 3 3 0 0 1 340.92 177 H 228 A 3 3 0 0 1 225 174 V 122 A 3 3 0 0 1 228 119 Z " fill="#85C1E9" fill-rule="nonzero" />
  <text x="255.71" y="141.95" fill="#000000" text-anchor="start" dominant-baseline="text-before-edge" font-size="10" font-family="Inter" xml:space="preserve">Row 2, Col 1</text>
  <path d="M 228 118.5 H 340.92 A 3.5 3.5 0 0 1 344.42 122 V 174 A 3.5 3.5 0 0 1 340.92 177.5 H 228 A 3.5 3.5 0 0 1 224.5 174 V 122 A 3.5 3.5 0 0 1 228 118.5 Z " fill="none" stroke="#000000" stroke-opacity="0.15" />
  <path d="M 358.92 119 H 441.1 A 3 3 0 0 1 444.1 122 V 174 A 3 3 0 0 1 441.1 177 H 358.92 A 3 3 0 0 1 355.92 174 V 122 A 3 3 0 0 1 358.92 119 Z " fill="#82E0AA" fill-rule="nonzero" />
  <text x="370.25" y="141.95" fill="#000000" text-anchor="start" dominant-baseline="text-before-edge" font-size="10" font-family="Inter" xml:space="preserve">Row 2, Col 2</text>
  <path d="M 358.92 118.5 H 441.1 A 3.5 3.5 0 0 1 444.6 122 V 174 A 3.5 3.5 0 0 1 441.1 177.5 H 358.92 A 3.5 3.5 0 0 1 355.42 174 V 122 A 3.5 3.5 0 0 1 358.92 118.5 Z " fill="none" stroke="#000000" stroke-opacity="0.15" />
  <path d="M 459.1 119 H 538.46 A 3 3 0 0 1 541.46 122 V 174 A 3 3 0 0 1 538.46 177 H 459.1 A 3 3 0 0 1 456.1 174 V 122 A 3 3 0 0 1 459.1 119 Z " fill="#F1948A" fill-rule="nonzero" />
  <text x="468.98" y="141.95" fill="#000000" text-anchor="start" dominant-baseline="text-before-edge" font-size="10" font-family="Inter" xml:space="preserve">Row 2, Col 3</text>
  <path d="M 459.1 118.5 H 538.46 A 3.5 3.5 0 0 1 541.96 122 V 174 A 3.5 3.5 0 0 1 538.46 177.5 H 459.1 A 3.5 3.5 0 0 1 455.6 174 V 122 A 3.5 3.5 0 0 1 459.1 118.5 Z " fill="none" stroke="#000000" stroke-opacity="0.15" />
  <path d="M 228 189 H 340.92 A 3 3 0 0 1 343.92 192 V 244 A 3 3 0 0 1 340.92 247 H 228 A 3 3 0 0 1 225 244 V 192 A 3 3 0 0 1 228 189 Z " fill="#F0B27A" fill-rule="nonzero" />
  <text x="255.68" y="211.95" fill="#000000" text-anchor="start" dominant-baseline="text-before-edge" font-size="10" font-family="Inter" xml:space="preserve">Row 3, Col 1</text>
  <path d="M 228 188.5 H 340.92 A 3.5 3.5 0 0 1 344.42 192 V 244 A 3.5 3.5 0 0 1 340.92 247.5 H 228 A 3.5 3.5 0 0 1 224.5 244 V 192 A 3.5 3.5 0 0 1 228 188.5 Z " fill="none" stroke="#000000" stroke-opacity="0.15" />
  <path d="M 358.92 189 H 441.1 A 3 3 0 0 1 444.1 192 V 244 A 3 3 0 0 1 441.1 247 H 358.92 A 3 3 0 0 1 355.92 244 V 192 A 3 3 0 0 1 358.92 189 Z " fill="#FAD7A0" fill-rule="nonzero" />
  <text x="370.21" y="211.95" fill="#000000" text-anchor="start" dominant-baseline="text-before-edge" font-size="10" font-family="Inter" xml:space="preserve">Row 3, Col 2</text>
  <path d="M 358.92 188.5 H 441.1 A 3.5 3.5 0 0 1 444.6 192 V 244 A 3.5 3.5 0 0 1 441.1 247.5 H 358.92 A 3.5 3.5 0 0 1 355.42 244 V 192 A 3.5 3.5 0 0 1 358.92 188.5 Z " fill="none" stroke="#000000" stroke-opacity="0.15" />
  <path d="M 459.1 189 H 538.46 A 3 3 0 0 1 541.46 192 V 244 A 3 3 0 0 1 538.46 247 H 459.1 A 3 3 0 0 1 456.1 244 V 192 A 3 3 0 0 1 459.1 189 Z " fill="#A9CCE3" fill-rule="nonzero" />
  <text x="468.94" y="211.95" fill="#000000" text-anchor="start" dominant-baseline="text-before-edge" font-size="10" font-family="Inter" xml:space="preserve">Row 3, Col 3</text>
  <path d="M 459.1 188.5 H 538.46 A 3.5 3.5 0 0 1 541.96 192 V 244 A 3.5 3.5 0 0 1 538.46 247.5 H 459.1 A 3.5 3.5 0 0 1 455.6 244 V 192 A 3.5 3.5 0 0 1 459.1 188.5 Z " fill="none" stroke="#000000" stroke-opacity="0.15" />
  <rect x="0" y="0" width="800" height="24" fill="#FFFFFF" />
  <text x="0" y="0" fill="#000000" text-anchor="start" dominant-baseline="text-before-edge" font-size="15" font-family="Inter" xml:space="preserve">&lt; Back</text>
  <text x="73.18" y="0" fill="#000000" text-anchor="start" dominant-baseline="text-before-edge" font-size="15" font-family="Inter" xml:space="preserve">Grid Layout</text>
  <g transform="translate(100 301.71826171875)" opacity="0.9">
    <polygon points="0,0 0,12 3,9 5,12 7,11 5,8 9,8" fill="white" stroke="black" stroke-width="0.7"/>
  </g>
</svg>
