<svg xmlns="http://www.w3.org/2000/svg" width="600" height="400" viewBox="0 0 600 400">
  <rect x="180" y="24" width="420" height="376" fill="#F0F0F0" />
  <text x="3" y="27" fill="#000000" text-anchor="start" dominant-baseline="text-before-edge" font-size="15" font-family="Inter" xml:space="preserve">Number Input</text>
  <text x="3" y="51.15" fill="#000000" text-anchor="start" dominant-baseline="text-before-edge" font-size="15" font-family="Inter" xml:space="preserve">Pattern Input</text>
  <text x="3" y="75.3" fill="#000000" text-anchor="start" dominant-baseline="text-before-edge" font-size="15" font-family="Inter" xml:space="preserve">Currency Input</text>
  <text x="184" y="28" fill="#000000" text-anchor="start" dominant-baseline="text-before-edge" font-size="15" font-family="Inter" xml:space="preserve">6-digit PIN:</text>
  <rect x="184" y="54.15" width="28" height="32" fill="#FFFFFF" />
  <rect x="184" y="54.15" width="28" height="32" fill="none" stroke="#808080" />
  <text x="198" y="70.15" fill="#000000" text-anchor="middle" dominant-baseline="central" font-size="14" font-family="Verdana" font-weight="Xui.Core.Canvas.FontWeight" xml:space="preserve">1</text>
  <rect x="216" y="54.15" width="28" height="32" fill="#FFFFFF" />
  <rect x="216" y="54.15" width="28" height="32" fill="none" stroke="#808080" />
  <text x="230" y="70.15" fill="#000000" text-anchor="middle" dominant-baseline="central" font-size="14" font-family="Verdana" font-weight="Xui.Core.Canvas.FontWeight" xml:space="preserve">2</text>
  <rect x="248" y="54.15" width="28" height="32" fill="#FFFFFF" />
  <rect x="250" y="56.15" width="24" height="28" fill="#0000FF" />
  <rect x="248" y="54.15" width="28" height="32" fill="none" stroke="#0000FF" />
  <text x="262" y="70.15" fill="#FFFFFF" text-anchor="middle" dominant-baseline="central" font-size="14" font-family="Verdana" font-weight="Xui.Core.Canvas.FontWeight" xml:space="preserve">3</text>
  <rect x="280" y="54.15" width="28" height="32" fill="#FFFFFF" />
  <rect x="280" y="54.15" width="28" height="32" fill="none" stroke="#808080" />
  <text x="294" y="70.15" fill="#000000" text-anchor="middle" dominant-baseline="central" font-size="14" font-family="Verdana" font-weight="Xui.Core.Canvas.FontWeight" xml:space="preserve">4</text>
  <rect x="312" y="54.15" width="28" height="32" fill="#FFFFFF" />
  <rect x="312" y="54.15" width="28" height="32" fill="none" stroke="#808080" />
  <rect x="344" y="54.15" width="28" height="32" fill="#FFFFFF" />
  <rect x="344" y="54.15" width="28" height="32" fill="none" stroke="#808080" />
  <text x="184" y="94.15" fill="#000000" text-anchor="start" dominant-baseline="text-before-edge" font-size="15" font-family="Inter" xml:space="preserve">Credit card (####-####-####-####):</text>
  <rect x="184" y="120.3" width="28" height="32" fill="#FFFFFF" />
  <rect x="184" y="120.3" width="28" height="32" fill="none" stroke="#808080" />
  <rect x="216" y="120.3" width="28" height="32" fill="#FFFFFF" />
  <rect x="216" y="120.3" width="28" height="32" fill="none" stroke="#808080" />
  <rect x="248" y="120.3" width="28" height="32" fill="#FFFFFF" />
  <rect x="248" y="120.3" width="28" height="32" fill="none" stroke="#808080" />
  <rect x="280" y="120.3" width="28" height="32" fill="#FFFFFF" />
  <rect x="280" y="120.3" width="28" height="32" fill="none" stroke="#808080" />
  <text x="314" y="136.3" fill="#000000" text-anchor="middle" dominant-baseline="central" font-size="14" font-family="Verdana" font-weight="Xui.Core.Canvas.FontWeight" xml:space="preserve">-</text>
  <rect x="316" y="120.3" width="28" height="32" fill="#FFFFFF" />
  <rect x="316" y="120.3" width="28" height="32" fill="none" stroke="#808080" />
  <rect x="348" y="120.3" width="28" height="32" fill="#FFFFFF" />
  <rect x="348" y="120.3" width="28" height="32" fill="none" stroke="#808080" />
  <rect x="380" y="120.3" width="28" height="32" fill="#FFFFFF" />
  <rect x="380" y="120.3" width="28" height="32" fill="none" stroke="#808080" />
  <rect x="412" y="120.3" width="28" height="32" fill="#FFFFFF" />
  <rect x="412" y="120.3" width="28" height="32" fill="none" stroke="#808080" />
  <text x="446" y="136.3" fill="#000000" text-anchor="middle" dominant-baseline="central" font-size="14" font-family="Verdana" font-weight="Xui.Core.Canvas.FontWeight" xml:space="preserve">-</text>
  <rect x="448" y="120.3" width="28" height="32" fill="#FFFFFF" />
  <rect x="448" y="120.3" width="28" height="32" fill="none" stroke="#808080" />
  <rect x="480" y="120.3" width="28" height="32" fill="#FFFFFF" />
  <rect x="480" y="120.3" width="28" height="32" fill="none" stroke="#808080" />
  <rect x="512" y="120.3" width="28" height="32" fill="#FFFFFF" />
  <rect x="512" y="120.3" width="28" height="32" fill="none" stroke="#808080" />
  <rect x="544" y="120.3" width="28" height="32" fill="#FFFFFF" />
  <rect x="544" y="120.3" width="28" height="32" fill="none" stroke="#808080" />
  <text x="578" y="136.3" fill="#000000" text-anchor="middle" dominant-baseline="central" font-size="14" font-family="Verdana" font-weight="Xui.Core.Canvas.FontWeight" xml:space="preserve">-</text>
  <rect x="580" y="120.3" width="28" height="32" fill="#FFFFFF" />
  <rect x="580" y="120.3" width="28" height="32" fill="none" stroke="#808080" />
  <rect x="612" y="120.3" width="28" height="32" fill="#FFFFFF" />
  <rect x="612" y="120.3" width="28" height="32" fill="none" stroke="#808080" />
  <rect x="644" y="120.3" width="28" height="32" fill="#FFFFFF" />
  <rect x="644" y="120.3" width="28" height="32" fill="none" stroke="#808080" />
  <rect x="676" y="120.3" width="28" height="32" fill="#FFFFFF" />
  <rect x="676" y="120.3" width="28" height="32" fill="none" stroke="#808080" />
  <text x="184" y="160.3" fill="#000000" text-anchor="start" dominant-baseline="text-before-edge" font-size="15" font-family="Inter" xml:space="preserve">CCV (###):</text>
  <rect x="184" y="186.45" width="28" height="32" fill="#FFFFFF" />
  <rect x="184" y="186.45" width="28" height="32" fill="none" stroke="#808080" />
  <rect x="216" y="186.45" width="28" height="32" fill="#FFFFFF" />
  <rect x="216" y="186.45" width="28" height="32" fill="none" stroke="#808080" />
  <rect x="248" y="186.45" width="28" height="32" fill="#FFFFFF" />
  <rect x="248" y="186.45" width="28" height="32" fill="none" stroke="#808080" />
  <rect x="0" y="0" width="600" height="24" fill="#FFFFFF" />
  <text x="0" y="0" fill="#000000" text-anchor="start" dominant-baseline="text-before-edge" font-size="15" font-family="Inter" xml:space="preserve">&lt; Back</text>
  <text x="73.18" y="0" fill="#000000" text-anchor="start" dominant-baseline="text-before-edge" font-size="15" font-family="Inter" xml:space="preserve">Input Widgets</text>
  <g transform="translate(390 70.1494140625)" opacity="0.9">
    <polygon points="0,0 0,12 3,9 5,12 7,11 5,8 9,8" fill="white" stroke="black" stroke-width="0.7"/>
  </g>
</svg>
